<?xml version="1.0" standalone="no"?>
<!DOCTYPE svg PUBLIC "-//W3C//DTD SVG 1.1//EN" "http://www.w3.org/Graphics/SVG/1.1/DTD/svg11.dtd" >
<svg xmlns="http://www.w3.org/2000/svg" xmlns:xlink="http://www.w3.org/1999/xlink" version="1.1">
<metadata>
Created by FontForge 20170731 at (null) By Aleksey,,,
Copyright 1994 Bay Animation Inc. All Rights Reserved.
</metadata>
<defs>
<font id="KeltItalic" horiz-adv-x="1381" >
  <font-face 
    font-family="Kelt"
    font-weight="400"
    font-style="italic"
    font-stretch="normal"
    units-per-em="2048"
    panose-1="0 0 4 0 0 0 0 0 0 0"
    ascent="1638"
    descent="-410"
    x-height="688"
    cap-height="1229"
    bbox="-285 -455 2806 1637"
    underline-thickness="20"
    underline-position="-163"
    slope="-11"
    unicode-range="U+0008-2122"
  />
<missing-glyph horiz-adv-x="1024" 
d="M128 0v1637h768v-1637h-768zM256 128h512v1381h-512v-1381z" />
    <glyph glyph-name=".notdef" horiz-adv-x="1024" 
d="M128 0v1637h768v-1637h-768zM256 128h512v1381h-512v-1381z" />
    <glyph glyph-name="glyph1" horiz-adv-x="0" 
 />
    <glyph glyph-name="glyph2" horiz-adv-x="488" 
 />
    <glyph glyph-name=".null" horiz-adv-x="0" 
 />
    <glyph glyph-name=".null" horiz-adv-x="0" 
 />
    <glyph glyph-name="BS" horiz-adv-x="0" 
 />
    <glyph glyph-name="HT" unicode="&#x9;" horiz-adv-x="488" 
 />
    <glyph glyph-name="nonmarkingreturn" unicode="&#xd;" horiz-adv-x="488" 
 />
    <glyph glyph-name="GS" horiz-adv-x="0" 
 />
    <glyph glyph-name="space" unicode=" " horiz-adv-x="488" 
 />
    <glyph glyph-name="exclam" unicode="!" horiz-adv-x="402" 
d="M324 955q2 6 2 20q0 36 -27 66q-48 53 -65 53q60 10 135 51l156 84l-10 -31q-57 -111 -70 -174l-150 -704q-2 -9 -2 -29q0 -29 19 -53h-173q38 32 49 82zM104 78q25 86 105 86q70 0 70 -65q0 -49 -39 -82q-29 -25 -68 -25q-70 0 -70 66q0 13 2 20z" />
    <glyph glyph-name="quotedbl" unicode="&#x22;" horiz-adv-x="383" 
d="M334 1247q10 35 49 35q33 0 33 -26v-9q-2 -16 -39 -108q-32 -80 -39 -80q-7 41 -6 86zM490 1247q10 35 49 35q33 0 33 -26v-9q-2 -16 -39 -108q-32 -80 -41 -80q-4 9 -6 29q-3 29 -2 53z" />
    <glyph glyph-name="numbersign" unicode="#" horiz-adv-x="844" 
d="M240 574l104 146h-182l100 52h117l103 142h-187l101 49h120l54 74l107 51l-95 -125h192l54 74l107 53l-90 -127h163l-98 -49h-101l-102 -144h185l-105 -50h-115l-47 -65l-125 -77l103 142h-189l-72 -96zM447 770h190l103 144h-193z" />
    <glyph glyph-name="dollar" unicode="$" horiz-adv-x="1000" 
d="M453 49l106 502q-207 54 -270 94q-95 61 -95 168q0 34 6 62q34 158 185 256q68 44 154 73q80 27 166 27q0 39 -8 66q-11 25 -31 45l-29 28q-18 17 -18 27v2q10 6 18 6h170l-37 -176q193 0 363 -82l-57 -86q-32 -48 -46 -110q-24 88 -102.5 152.5t-169.5 74.5l-104 -494
q224 -51 283 -123q39 -48 39 -120q0 -28 -7 -64q-29 -146 -173 -253q-128 -94 -288 -120q-12 -55 -12 -98q2 -22 2 -30h-98l22 50l21 73l-33 -2q-38 -2 -80 5q-24 1 -74 13q-85 20 -152 51l4 14q47 49 66 90l9 31l8 57q4 15 14 21q0 -106 72 -169q68 -61 176 -61zM621 533
l-103 -486q51 0 103 23t94 57q81 66 109 189q4 18 4 43q0 57 -45 100q-52 41 -162 74zM590 699l102 480q-293 0 -338 -208q-8 -37 -8 -61q0 -75 57 -125.5t187 -85.5z" />
    <glyph glyph-name="percent" unicode="%" horiz-adv-x="1057" 
d="M196 180l700 766q59 65 94 115q49 71 49 98v5l-10 28l-6 25q3 12 28 12h170l-1026 -1126q-32 -37 -80 -103h-99q11 9 43 37q15 16 57 60zM1088 242q-26 -120 -121 -193q-83 -64 -191 -64q-105 0 -165 64q-48 51 -48 127v37q4 12 9 29q23 111 111.5 184.5t201.5 73.5
q92 0 150 -50q61 -53 61 -143v-36q-3 -12 -8 -29zM879 475q-79 0 -141 -69q-55 -61 -80 -164q-9 -37 -9 -76q0 -49 17 -90q28 -68 115 -68q80 0 141 68q90 100 90 244q0 44 -16 82q-31 73 -117 73zM735 975q-24 -119 -120 -192q-84 -64 -191 -64q-105 0 -166 64
q-47 49 -47 127v36q3 12 8 29q26 119 116.5 188.5t197.5 69.5t164 -63q47 -52 47 -129v-37q-6 -21 -9 -29zM527 1208q-82 0 -142 -69q-53 -62 -80 -164q-8 -31 -8 -76q0 -48 17 -90q27 -67 114 -67q81 0 142 67q52 57 79 166q11 44 11 78q0 41 -17 82q-31 73 -116 73z" />
    <glyph glyph-name="ampersand" unicode="&#x26;" horiz-adv-x="2048" 
d="M257 492q-13 -59 -13 -115q0 -133 80 -221q101 -111 287 -111q178 0 327 111q164 122 211 336q12 55 12 114q0 133 -79 222q-98 110 -287 110q-199 0 -349 -126q-146 -123 -189 -320zM128 578q58 276 319 471q240 180 495 180q178 0 277 -88q4 -2 8 -14q-5 -2 -12 -6
q-32 -13 -72 -35l-76 -82q-40 -43 -45 -43h-4l25 55l20 53q2 8 2 23q0 31 -20 49q-35 32 -133 32q-181 0 -322 -114q-113 -91 -233 -307q84 102 217 161q129 58 264 58q150 0 264 -76q127 -85 174 -250l55 -313q27 -156 156 -235q42 -26 90 -39t90 -13q72 0 148 31
q98 40 106 59q-38 -57 -151 -98q-117 -42 -230 -42q-71 0 -129 15q-110 28 -194 181q-25 47 -60 149q-116 -173 -232 -253q-140 -96 -325 -96q-250 0 -387 171q-98 123 -98 291q0 63 13 125zM1168 891l57 47q87 72 92 115l19 12q59 -59 122 -59q115 0 271 51q202 66 282 88
q99 27 146 27q43 0 82 -11l-6 -8l-74 -20l-53 -37q-6 -5 -29 -19l-12 -6q-35 19 -84 19q-78 0 -258 -56q-414 -129 -555 -143z" />
    <glyph glyph-name="quotesingle" unicode="'" horiz-adv-x="226" 
d="M334 1247q10 35 49 35q33 0 33 -26v-9q-2 -16 -39 -108q-32 -80 -39 -80q-7 41 -6 86z" />
    <glyph glyph-name="parenleft" unicode="(" horiz-adv-x="328" 
d="M606 1460q-6 -7 -16 -22q-17 -25 -47 -70q-71 -115 -133 -254q-85 -191 -128 -387q-15 -70 -30 -180q-13 -98 -13 -178q0 -205 35 -369l-132 -94q-42 81 -42 281q0 182 49 415q60 286 171 510q123 249 286 348z" />
    <glyph glyph-name="parenright" unicode=")" horiz-adv-x="328" 
d="M10 -80l62 93q72 107 135 253q80 183 125 388q40 181 40 342q0 133 -5 202q-6 79 -27 183l133 94q41 -94 41 -289q0 -178 -51 -416q-62 -291 -170 -506q-125 -250 -283 -344z" />
    <glyph glyph-name="asterisk" unicode="*" horiz-adv-x="463" 
d="M447 899l90 -114l-23 -19l-82 107l-28 -127l-29 -25l33 152l-131 -107l-15 19l140 114l-90 115l22 18l84 -106l27 127l31 24l-33 -151l129 106l14 -18z" />
    <glyph glyph-name="plus" unicode="+" horiz-adv-x="842" 
d="M484 601h-351l191 87h178l48 222l75 41l-57 -263h356l-191 -87h-184l-53 -251l-72 -36z" />
    <glyph glyph-name="comma" unicode="," horiz-adv-x="348" 
d="M226 58q-18 -79 -125 -183q-44 -43 -64 -45l12 24q56 72 66 103v8q0 13 -14 29q-29 34 -29 64v8q6 31 34.5 54.5t61.5 23.5q60 0 60 -58q0 -19 -2 -28z" />
    <glyph glyph-name="hyphen" unicode="-" horiz-adv-x="776" 
d="M238 545h553l-105 -87h-553z" />
    <glyph glyph-name="hyphen" unicode="&#x2010;" horiz-adv-x="776" 
d="M238 545h553l-105 -87h-553z" />
    <glyph glyph-name="period" unicode="." horiz-adv-x="389" 
d="M105 119q26 21 61 25q62 0 62 -64v-14q-12 -68 -95 -79q-63 0 -63 62q0 42 35 70z" />
    <glyph glyph-name="slash" unicode="/" horiz-adv-x="1057" 
d="M178 135l803 1016q15 16 37 45q10 16 37 60q10 15 27 49q4 10 16 43v18l-12 31l-9 29q15 8 23 8h170l-1149 -1479h-99q24 19 111 125z" />
    <glyph glyph-name="zero" unicode="0" horiz-adv-x="1090" 
d="M758 1172q201 0 313 -148q82 -109 82 -278q0 -87 -18 -172q-52 -245 -215 -413q-180 -185 -418 -185q-200 0 -313 147q-83 108 -83 273q0 77 21 178q51 245 214 413q180 185 417 185zM512 17q180 0 318 197q108 155 153 360q22 101 22 207q0 125 -42 210
q-69 140 -215 140q-141 0 -271 -137q-141 -148 -198 -420q-25 -120 -25 -207q0 -123 43 -209q70 -141 215 -141z" />
    <glyph glyph-name="one" unicode="1" horiz-adv-x="609" 
d="M361 51q0 -26 14 -51h-197q25 25 41 64l25 88l183 860q0 16 -25 20l-41 7h-27l-16 -2l123 81q76 50 110 54q31 0 31 -41q0 -13 -6 -41z" />
    <glyph glyph-name="two" unicode="2" horiz-adv-x="930" 
d="M-17 0q11 0 203 140q256 187 396 323q215 208 252 363q8 33 8 82q0 102 -64 164.5t-167 62.5q-44 0 -94 -18q-63 -23 -70 -58q-6 -30 -6 -43q0 -18 7 -39.5t44 -66.5l-45 10l-86 10l-99 -6l-31 -6q15 68 150 155q163 105 340 105q113 0 185 -42q88 -52 88 -157
q0 -26 -6 -55q-36 -171 -210 -363q-73 -80 -143 -143q-75 -67 -185 -151q-66 -50 -245 -168h430q89 0 164 32q59 25 95 47l-74 -90q-71 -86 -91 -162q-16 18 -92 47q-72 27 -187 27h-467z" />
    <glyph glyph-name="three" unicode="3" horiz-adv-x="883" 
d="M487 930l-41 18q-15 7 -43 15q-23 4 -35 8l-62 8h-24q-12 0 -41 4q76 94 200 145.5t243 51.5q127 0 213 -57q74 -49 74 -115q0 -12 -4 -31q-27 -131 -140 -201q-35 -22 -186 -79q100 -48 160 -117q72 -83 72 -193q0 -41 -6 -71q-29 -146 -173 -243q-135 -91 -290 -91
q-154 0 -277 65l-77 70q76 8 148 43l72 35q-11 -35 -11 -60q0 -34 19 -67q30 -53 109 -53q83 0 168 65q114 87 147 236q10 45 10 92q0 76 -32 137q-57 109 -201 127q94 24 149 51q152 75 183 199q4 33 4 45q0 80 -65 129q-68 51 -160 51q-104 0 -127 -86q-2 -8 -2 -27
q0 -45 26 -104z" />
    <glyph glyph-name="four" unicode="4" horiz-adv-x="1061" 
d="M430 903q2 19 5 35.5t3 36.5q0 55 -29 90l-109 56q3 8 55.5 22t115.5 14q30 0 80 19l53 20q8 -8 8 -14q-43 -194 -123 -373q-55 -123 -133 -246q-55 -86 -64 -88h426l101 467q2 9 2 25q0 45 -35 80l-35 35q89 12 154 51l140 84l-8 -31q-56 -107 -70 -174l-115 -537h260
l-159 -66h-113l-56 -257l-16 -92v-9q0 -26 14 -51h-197q19 17 41 64l25 87l55 258h-578q84 88 127 144q138 177 175 350z" />
    <glyph glyph-name="five" unicode="5" horiz-adv-x="897" 
d="M45 121q79 12 129 53l52 43q0 -54 16 -96t45 -68q42 -38 141 -38q103 0 190 97t126 265q14 61 14 117q0 95 -51 155q-61 72 -199 72q-71 0 -158.5 -22t-152.5 -52l90 418q9 40 70 74l45 25l34 8h590l-32 -20l-62 -52q-20 -25 -47 -74l-18 -45q-51 74 -84 98
q-45 31 -123 31h-226l-75 -360l47 10q47 10 112 10q178 0 275.5 -67t97.5 -207q0 -53 -10 -100q-38 -178 -171 -294q-138 -120 -317 -120q-178 0 -292 67z" />
    <glyph glyph-name="six" unicode="6" horiz-adv-x="916" 
d="M865 1172h202l-33 -18q-35 -19 -59 -50q-42 -44 -70 -98l-12 -23q0 54 -39 97t-92 43q-137 0 -270.5 -167t-198.5 -452l-2 -7q-32 -145 -32 -255q0 -39 5 -70q25 -153 152 -153q112 0 203 104q80 91 108 225q10 48 10 91q0 57 -16 98q-37 96 -137 96q-48 0 -96 -20
l-75 -31q26 49 97 77q60 23 125 23q117 0 186 -67q58 -56 58 -154v-37q-3 -17 -8 -43q-26 -123 -152 -250q-144 -145 -309 -145q-290 0 -290 336q0 91 19 182q57 275 259 467q211 201 467 201z" />
    <glyph glyph-name="seven" unicode="7" horiz-adv-x="840" 
d="M231 -51q37 177 126 365q79 167 182 338q97 162 195 270q77 85 201 188h-385q-127 0 -220 -37l-101 -53q103 130 130 172q6 9 20 37q17 33 17 55q12 -36 80.5 -74t148.5 -38h473q-104 -67 -270 -260q-123 -144 -176 -260q-80 -177 -132 -322q-9 -24 -31 -109
q-20 -75 -55 -217z" />
    <glyph glyph-name="eight" unicode="8" horiz-adv-x="928" 
d="M580 623q-125 0 -224 -94q-92 -88 -119 -215q-8 -38 -8 -80q0 -75 35 -135q54 -93 185 -93q125 0 225 97q86 84 117 211q4 16 6 47l2 30q0 76 -35 136q-56 96 -184 96zM692 1159q-103 0 -172 -73q-61 -65 -90 -178q-8 -31 -8 -76q0 -56 21 -97q41 -79 143 -79
q103 0 176 76q65 69 86 176q8 40 8 75q0 176 -164 176zM742 58q-134 -85 -301 -85q-163 0 -263 85q-82 70 -82 178v45q5 19 8 33q33 164 197 262q44 26 155 63q-61 26 -90 51q-65 57 -65 152q0 37 6 66q26 127 147 208q112 76 247 76q134 0 217 -76q61 -56 61 -143
q0 -27 -8 -65q-29 -139 -147 -216q-29 -19 -117 -53q92 -32 129 -61q94 -73 94 -197q0 -203 -188 -323z" />
    <glyph glyph-name="nine" unicode="9" horiz-adv-x="916" 
d="M219 0h-203l33 19q36 21 57 47q15 16 70 100l15 23q0 -56 37 -98t92 -42q179 0 319 231q103 171 150 388q35 163 35 266v27q0 14 -4 39q-25 153 -152 153q-110 0 -203 -104q-81 -90 -110 -225q-11 -51 -11 -89q0 -50 19 -100q36 -96 137 -96q50 0 96 20l72 31
q-22 -48 -84 -74t-135 -26q-107 0 -174 55q-72 59 -72 164q0 36 10 82q28 126 152 250q146 145 309 145q166 0 240 -125q49 -83 49 -209q0 -90 -20 -184q-59 -279 -257 -467q-211 -201 -467 -201z" />
    <glyph glyph-name="colon" unicode=":" horiz-adv-x="389" 
d="M105 119q26 21 61 25q62 0 62 -64v-14q-14 -68 -95 -79q-64 0 -64 62q0 41 36 70zM182 590q6 31 33 52.5t62 25.5q63 0 63 -62q0 -43 -33 -69q-26 -21 -63 -25q-31 0 -47 21q-15 16 -15 45v12z" />
    <glyph glyph-name="semicolon" unicode=";" horiz-adv-x="348" 
d="M182 590q6 31 33 52.5t62 25.5q63 0 63 -62q0 -43 -33 -69q-26 -21 -63 -25q-31 0 -47 21q-15 16 -15 45v12zM225 58q-18 -79 -125 -183q-44 -43 -64 -45l12 24q56 72 66 103v8q0 13 -14 29q-29 34 -29 64v8q17 78 97 78q59 0 59 -58q0 -19 -2 -28z" />
    <glyph glyph-name="less" unicode="&#x3c;" horiz-adv-x="598" 
d="M654 869q-56 -111 -151 -204q-101 -99 -210 -140q72 -64 115 -113q115 -131 131 -223l-133 -31q-15 113 -156 233l-140 119q145 46 263 154q89 81 138 184z" />
    <glyph glyph-name="equal" unicode="=" horiz-adv-x="776" 
d="M299 598h553l-190 -87h-554zM269 455h552l-190 -87h-554z" />
    <glyph glyph-name="greater" unicode="&#x3e;" horiz-adv-x="598" 
d="M151 164q58 110 142 195q103 105 219 149q-74 66 -114 113q-118 136 -130 223l132 31q13 -108 158 -234l137 -119q-145 -46 -263 -153q-88 -80 -137 -184z" />
    <glyph glyph-name="question" unicode="?" horiz-adv-x="760" 
d="M660 553q-182 -106 -193 -147q-4 -15 -4 -45q0 -47 23 -68l36 -33q-2 -8 -18 -10l-61 12q-66 13 -74 13l-84 -25q-8 8 -8 12q20 94 223 252q256 199 256 445q0 58 -23 104q-38 76 -149 76q-105 0 -184 -88q-64 -71 -86 -168q-13 -56 -13 -76q0 -22 13 -59l-33 8
q-66 59 -66 147q0 13 4 45q24 101 141 166q104 58 216 58q151 0 241 -95q64 -67 64 -165q0 -22 -2 -41q-19 -202 -219 -318zM258 78q25 86 105 86q69 0 69 -65q0 -48 -39 -82q-29 -25 -67 -25q-70 0 -70 66q0 13 2 20z" />
    <glyph glyph-name="at" unicode="@" horiz-adv-x="903" 
d="M563 273l-45 155q-74 0 -131 -37q-61 -40 -80 -108q-2 -7 -2 -27q0 -22 17 -47q14 -26 71 -26q50 0 119 45zM353 133q-119 0 -119 93q0 17 2 26q18 83 123 141q79 43 155 52l-16 59q0 17 -13 34t-32 17q-14 0 -31 -8l-14 -10l53 31q34 20 51 59l23 -39q10 -25 30 -76
l89 -307q21 -72 45 -76q25 0 41 58l38 141q15 56 15 115q0 76 -31 137q-57 112 -197 112q-147 0 -257 -112q-99 -100 -136 -252q-10 -42 -10 -94q0 -127 92 -185q77 -49 236 -49h63l17 -4q-56 -33 -150 -33q-156 0 -257.5 81.5t-101.5 207.5v45l8 31q36 167 183.5 282
t319.5 115q160 0 249 -106q70 -83 70 -197q0 -37 -10 -90q-16 -84 -64 -159q-60 -93 -133 -93q-65 0 -90 90l-24 86l-76 -61q-77 -62 -141 -62z" />
    <glyph glyph-name="A" unicode="A" horiz-adv-x="1229" 
d="M106 -21q0 97 19 191q51 255 258 477q181 195 412 304q-18 67 -62 180q-49 86 -141 98h240q76 0 84 -29q34 -123 110 -477q25 -114 64 -282q17 -72 45 -187q60 -220 117 -254h-217q0 75 -49 260l-83 314l-45 153zM291 201l559 553l-43 158l-125 -52q-123 -92 -229 -227
q-149 -190 -169 -336l-12 -86z" />
    <glyph glyph-name="B" unicode="B" horiz-adv-x="1055" 
d="M174 0l215 1008q7 33 7 55q0 56 -33 96q-41 50 -84 50q-8 0 -17 -2l64 14l51 4q77 6 121 -45q14 -10 29 -47q127 96 297 96q79 0 129 -35q34 -24 34 -73q0 -18 -2 -27q-18 -84 -164 -186l-139 -80q53 0 117 -15q281 -65 281 -297q0 -39 -10 -86q-55 -258 -367 -366
q-190 -66 -455 -66h-45zM471 774l-151 -716q0 -23 76 -23q142 0 282 82q182 106 225 309q8 37 8 80q0 133 -113 219q-104 80 -241 80q-75 0 -86 -31zM527 1032l-39 -184q0 -6 12 -10h25q86 0 176 43q116 55 141 168q4 18 4 26q0 48 -35.5 79.5t-83.5 31.5q-98 0 -196 -78
l2 -31z" />
    <glyph glyph-name="C" unicode="C" 
d="M1135 1229h479l-25 -18q-22 -16 -49.5 -50.5t-36.5 -68.5l-14 -53q-43 74 -164 111q-94 29 -202 29q-262 0 -461 -154q-202 -157 -256 -410q-19 -90 -19 -166q0 -145 64 -252q107 -180 340 -180q147 0 296 79q138 73 240 193l-34 -164q-105 -79 -248 -119
q-139 -39 -289 -39q-289 0 -429 164q-105 123 -105 312q0 84 19 172q64 298 332 464q241 150 562 150z" />
    <glyph glyph-name="D" unicode="D" horiz-adv-x="1516" 
d="M237 568q46 223 219 391q225 219 560 219q-38 0 -131 -33q-385 -137 -483 -577q-17 -77 -17 -156q0 -123 51 -219q94 -176 324 -176q267 0 440 182q149 156 207 416q20 89 20 174q0 157 -81 254q-156 186 -621 186h-317q37 0 106 49t125 146q18 -68 90 -109
q65 -37 140 -37q299 0 484 -102q234 -129 234 -404q0 -83 -16 -157q-53 -244 -289 -441q-248 -207 -532 -207q-263 0 -412 152q-118 120 -118 305q0 62 17 144z" />
    <glyph glyph-name="E" unicode="E" 
d="M1164 1229h450q-18 -12 -22 -16q-64 -46 -93 -125l-12 -49q-64 70 -131 100q-90 40 -225 40q-203 0 -355 -77q-107 -54 -194 -147l-60 -80h670q151 0 279 86l-45 -205q-109 86 -242 86h-682l-18 -28q-45 -69 -72 -195q-25 -111 -25 -193q0 -120 43 -213q91 -196 348 -196
q135 0 271 60q165 73 278 216l-34 -164q-111 -65 -254 -112q-156 -50 -271 -50q-316 0 -456 191q-85 116 -85 285q0 82 19 172q65 311 339 472q239 142 579 142z" />
    <glyph glyph-name="F" unicode="F" horiz-adv-x="901" 
d="M90 -398l316 1484q2 22 2 37v10q-6 28 -31 57l-49 33l8 6h768q8 0 17 -8l-43 -51q-20 -32 -23 -56l-4 -32l-17 6q-77 71 -223 100l-49 4l-53 2l-84 -2l-66 -6l-217 -1026h556l-72 -88l-93 -76q-33 62 -131 95q-79 26 -166 26q-103 0 -110 -34l-82 -386l-27 -9l-41 -22
l-59 -45z" />
    <glyph glyph-name="G" unicode="G" 
d="M1331 289l-67 -316q-37 -174 -199 -282q-114 -76 -149 -76q-8 0 -13 4q62 38 131.5 129.5t92.5 204.5l18 88l-125 -37q-125 -37 -264 -37q-289 0 -429 164q-105 123 -105 312q0 84 19 172q64 298 332 464q241 150 562 150h479l-25 -18q-22 -16 -49.5 -50.5t-36.5 -68.5
l-14 -53q-43 74 -164 111q-94 29 -202 29q-262 0 -460 -154q-202 -156 -257 -410q-21 -96 -21 -181q0 -138 54 -237q98 -180 327 -180q144 0 307 83q147 75 258 189z" />
    <glyph glyph-name="H" unicode="H" horiz-adv-x="1415" 
d="M266 152l265 1249q8 38 8 62q0 91 -78 120l-72 27q-34 13 -36 23l20 4h342l-115 -543q82 51 131 72q161 71 324 71q245 0 360 -168q74 -108 74 -258q0 -76 -14 -141q-55 -256 -215 -461q-113 -145 -269 -250l-133 -62q124 56 248 245q136 207 204 534q18 87 18 164
q0 138 -65 221q-84 108 -296 108q-117 0 -230 -43q-143 -54 -163 -149l-187 -911q0 -44 13 -66h-199q25 25 41 64z" />
    <glyph glyph-name="I" unicode="I" horiz-adv-x="527" 
d="M266 152l179 842q8 38 8 61q0 93 -78 121l-72 26q-16 6 -23 13q-8 4 -14 10l21 4h342l-242 -1163q0 -44 13 -66h-200q25 25 41 64z" />
    <glyph glyph-name="J" unicode="J" horiz-adv-x="527" 
d="M266 152l179 842q8 38 8 61q0 93 -78 121l-72 26q-14 5 -22 13q-8 4 -15 10l21 4h342l-229 -1077q-34 -160 -142 -312q-67 -94 -176 -180q-72 -57 -88 -60q67 90 133 207q106 189 139 345z" />
    <glyph glyph-name="K" unicode="K" horiz-adv-x="1387" 
d="M266 152l265 1249q8 38 8 62q0 91 -78 120l-72 27q-35 13 -37 23l21 4h342l-162 -758l27 -2q14 -1 29 -1q98 0 212 52q191 87 271 301h183q-96 -163 -273 -264q-204 -117 -283 -117q-10 0 -18 2q166 -51 266 -237q21 -47 55 -119l94 -203q91 -162 222 -162h24l29 4
l-123 -82q-114 -76 -133 -76q-96 76 -168 248q-19 45 -45 132q-31 102 -47 176q-46 209 -193 278q-40 19 -137 29l-158 -772q0 -44 12 -66h-199q25 25 41 64z" />
    <glyph glyph-name="L" unicode="L" horiz-adv-x="1000" 
d="M266 152l264 1249q8 38 8 62q0 91 -77 120l-72 27q-35 13 -37 23l21 4h342l-330 -1557q0 -43 131 -43q119 0 246 31q141 35 227 94l-118 -215q-21 18 -111 31q-59 9 -246 14l-314 8q25 25 41 64z" />
    <glyph glyph-name="M" unicode="M" horiz-adv-x="2327" 
d="M239 611q67 317 331 489q217 141 477 141q218 0 332 -108q30 -28 69 -111q113 117 227 163q110 44 277 44q235 0 360 -172q84 -116 84 -283q0 -76 -18 -163q-59 -284 -287 -469q-216 -175 -461 -175q-83 0 -155 48q-67 45 -86 100q8 -6 35 -27q19 -15 32 -22
q86 -49 193 -49q193 0 360 186q153 170 205 408q22 101 22 184q0 129 -51 223q-88 161 -299 161q-151 0 -279 -89q-135 -95 -165 -238l-180 -851l-133 -1l170 799q14 66 14 129q0 264 -276 264q-222 0 -408 -180q-172 -166 -225 -401q-21 -93 -21 -179q0 -180 99 -292
q108 -123 294 -123q66 0 157 34q98 37 136 84q-63 -78 -161 -125q-89 -43 -195 -43q-239 0 -384 179q-107 132 -107 315q0 70 17 150z" />
    <glyph glyph-name="N" unicode="N" horiz-adv-x="1340" 
d="M153 0q68 87 90 189l199 938l-86 61l-47 16q-39 13 -39 21l31 4h256l623 -1020l164 778q8 38 8 52q0 10 -2 16q0 20 -19 68l-20 20q-40 42 -64 64l7 22h188l-254 -1186q-10 -48 -22 -51q-16 13 -21 21l-670 1060l-164 -778q-8 -38 -8 -74q0 -118 84 -221h-234z" />
    <glyph glyph-name="O" unicode="O" horiz-adv-x="1546" 
d="M1059 1262q275 0 432 -162q125 -129 125 -330q0 -78 -16 -155q-60 -287 -292 -469q-228 -179 -523 -179q-280 0 -435 162q-123 128 -123 330q0 77 16 156q64 305 314 485q225 162 502 162zM795 17q209 0 385 147q195 163 255 451q18 86 18 172q0 166 -83 276
q-113 150 -321 150q-207 0 -385 -148q-193 -160 -256 -450q-21 -96 -21 -172q0 -166 84 -277q113 -149 324 -149z" />
    <glyph glyph-name="P" unicode="P" horiz-adv-x="1407" 
d="M99 -434l36 81q40 90 74 250l217 1019q10 47 10 90q0 73 -34 119q-53 71 -107 71q-10 0 -18 -2q67 23 123 23q95 0 143 -66q17 -23 29 -67q213 149 440 149q236 0 369 -141q106 -112 106 -287q0 -67 -14 -133q-62 -291 -318 -489q-237 -183 -491 -183q-166 0 -279 101
l-2 -19l-6 -22q-25 -100 -84 -277q-83 -191 -194 -217zM1308 672q18 87 18 156q0 169 -103 264q-100 91 -272 91q-127 0 -242 -59q-118 -61 -133 -130l-174 -828q0 -33 75 -76q93 -41 207 -41q203 0 359 129q196 162 265 494z" />
    <glyph glyph-name="Q" unicode="Q" horiz-adv-x="1385" 
d="M985 -439l113 540q-170 -111 -371 -111q-240 0 -389 156q-115 121 -115 307q0 70 15 139q61 279 293 465q215 172 460 172q56 0 99 -6q29 -4 86 -23q81 -27 143 -94q23 33 25 35q5 8 28 25q84 65 193 61l53 -2q-74 -18 -140 -128q-54 -90 -73 -181l-217 -1019
q-4 -19 -6 -53l-2 -37v-26q4 -19 5 -32t4 -20.5t13 -27.5q-35 -14 -151 -113q-51 -43 -62 -43q-4 8 -4 16zM731 39q140 0 259 55t137 140l161 760q2 9 2 24q0 61 -65 107q-77 54 -207 54q-195 0 -356 -128q-193 -153 -260 -459q-21 -95 -21 -184q0 -159 70 -250
q92 -119 280 -119z" />
    <glyph glyph-name="R" unicode="R" horiz-adv-x="1127" 
d="M935 1014q6 26 6 47q0 120 -150 120q-85 0 -172 -43q-80 -40 -94 -104l-91 -430q147 37 224 76q227 115 277 334zM205 152l180 846q6 28 6 57q0 50 -25 94q-43 76 -73 76l60 4q99 7 147 -55q8 -15 22 -58q93 70 179 103q92 35 180 35q112 0 178 -62q48 -45 48 -119
q0 -22 -4 -43q-43 -229 -411 -401q-105 -49 -124 -49q88 -33 182 -168l170 -246q115 -135 244 -166h-283q-87 55 -184 221l-119 203q-35 49 -74 84t-70 35q-10 0 -16 -14l-80 -377l-13 -86q0 -44 13 -66h-199q20 17 37 53z" />
    <glyph glyph-name="S" unicode="S" horiz-adv-x="1020" 
d="M146 66l18 28q29 35 51 76l8 31l9 57q4 15 14 21q0 -80 70 -156t211 -76q126 0 219.5 73.5t118.5 195.5q4 19 4 37q0 112 -152 163q-72 21 -215 64q-42 12 -123 39q-144 67 -144 198q0 30 6 58q38 174 212 270q152 84 354 84q191 0 367 -82l-58 -88q-30 -46 -45 -108
q-16 67 -100 147.5t-217 80.5q-311 0 -358 -208q-7 -31 -7 -57q0 -125 146 -185l338 -96q143 -61 143 -194q0 -184 -195 -326q-158 -115 -366 -115q-77 0 -159 17t-150 51z" />
    <glyph glyph-name="T" unicode="T" horiz-adv-x="1452" 
d="M230 1075l77 91q71 84 95 161q13 -32 80 -65t182 -33h1040l-33 -20l-61 -52q-21 -24 -47 -73l-19 -45q-48 75 -97 101.5t-146 26.5h-185q-174 0 -366 -212q-184 -203 -241 -451q-17 -74 -17 -151q0 -125 59 -209q90 -127 295 -127q158 0 304.5 79.5t234.5 190.5l-35 -164
q-246 -156 -514 -156q-251 0 -393 123q-118 102 -118 269q0 57 11 106q45 197 197 375q112 131 270 241q123 86 137 86h-397q-131 0 -218 -38z" />
    <glyph glyph-name="U" unicode="U" horiz-adv-x="1362" 
d="M233 565q37 178 166 320l162 178q7 6 7 17q0 16 -19 45q-28 31 -39.5 45.5t-38.5 50.5q11 8 19 8h258q12 0 14 -8q-198 -180 -301 -447q-63 -164 -80 -305q-6 -49 -6 -92q0 -158 85.5 -248t244.5 -90q138 0 271 69.5t151 155.5l161 756q5 12 5 27v20q0 47 -21 80
q-61 47 -74 64l4 18h265l-263 -1230l-133 1l31 142q-48 -40 -176 -99q-144 -66 -289 -66q-254 0 -363 185q-60 102 -60 238q0 73 19 165z" />
    <glyph glyph-name="V" unicode="V" horiz-adv-x="1321" 
d="M270 1229h339q4 -2 10 -6q-60 -43 -79 -105l-2 -36q-3 -51 19 -164q20 -102 51 -221q13 -51 37 -133l11 -37q24 -85 53 -174q14 -45 43 -125q2 -9 8 -23l139 184l279 375q74 98 199 289q10 19 13 33t3 28q0 29 -14 52l-53 59l20 4h215l-90 -133l-309 -412
q-20 -27 -162 -225q-21 -29 -162 -233q-95 -137 -168 -245q-8 -16 -25 -20q-24 0 -41 92l-47 261q-19 106 -39 190q-10 43 -53 203q-64 238 -127 375z" />
    <glyph glyph-name="W" unicode="W" horiz-adv-x="1952" 
d="M1047 105q-35 -28 -96 -56q-157 -72 -314 -72q-257 0 -361 199q-56 107 -56 248q0 82 19 172q31 145 162 303q56 52 158 162q9 8 9 19q0 16 -19 45q-28 31 -39.5 45.5t-38.5 50.5q11 8 19 8h258q6 0 10 -2l4 -4q-271 -224 -358 -627q-23 -106 -23 -190q0 -158 80 -252
q98 -115 287 -115q75 0 154.5 29.5t123.5 66.5q-36 65 -53 121q-27 89 -27 178q0 72 19 162q33 157 117 303q55 96 114 164q6 7 6 17q0 16 -18 45q-28 31 -39.5 45.5t-38.5 50.5q10 8 19 8h202q19 0 19 -16q-56 -107 -115 -259.5t-102 -357.5q-25 -118 -25 -217
q0 -134 51 -219q73 -121 226 -121q98 0 203 65q113 70 132 160l162 756q4 12 4 27v20q0 47 -20 80q-62 47 -74 64l4 18h264l-262 -1230l-133 1l31 142q-30 -40 -141 -99q-123 -66 -258 -66q-94 0 -181 64q-28 21 -65 64z" />
    <glyph glyph-name="X" unicode="X" horiz-adv-x="1311" 
d="M24 0q66 93 238 309l381 478q15 16 37 39q-102 162 -151 215q-54 59 -107 80l-59 8h-43q-11 -3 -40 -11l-16 -4q97 74 191 74q105 0 221 -127q40 -43 92 -129q144 150 217 205q122 92 244 92q39 0 53 -4q36 -3 72 -21l-12 -16l-67 -57l-68 -123q-22 100 -103 100
q-65 0 -148.5 -60.5t-160.5 -158.5l492 -889h-209l-78 180l-162 355q-55 120 -78 164q-28 52 -49 79l-76 -90q-65 -77 -182 -264q-119 -190 -227 -424h-202z" />
    <glyph glyph-name="Y" unicode="Y" horiz-adv-x="1362" 
d="M1247 201q-126 -590 -708 -590q-148 0 -289 36l-104 44q68 19 149 69q7 4 41 23q21 16 31 24v-8q0 -45 80 -90q87 -49 194 -49q149 0 267 106q134 120 194 376q-48 -40 -176 -99q-144 -66 -289 -66q-254 0 -363 185q-60 102 -60 238q0 73 19 165q37 178 166 320l162 178
q7 6 7 17q0 16 -19 45q-28 31 -39.5 45.5t-38.5 50.5q11 8 19 8h258q12 0 14 -8q-198 -180 -301 -447q-84 -219 -84 -391q0 -144 64 -229q87 -115 260 -115q141 0 276 70q132 68 150 155l161 756q5 12 5 27v20q0 47 -21 80q-61 47 -74 64l4 18h265z" />
    <glyph glyph-name="Z" unicode="Z" horiz-adv-x="1387" 
d="M37 0l1324 1091h-638q-132 0 -262 -30q-136 -32 -141 -41l129 117q51 46 123 153q57 -64 155 -86l129 -14l160 -4q16 0 141 6q54 1 131 4l199 11q70 4 70 -15v-4q-8 -14 -14 -18l-1098 -906l108 41q108 41 207 41l43 -4q131 -12 242 -114q87 -80 176 -80q56 0 105 18
q18 5 53 17q0 -31 -121 -159.5t-156 -128.5h-4q-50 13 -270 232q-87 86 -222 86q-153 0 -366 -125q-61 -36 -178 -125z" />
    <glyph glyph-name="bracketleft" unicode="[" horiz-adv-x="565" 
d="M116 -66l282 1316q7 67 53 92q70 39 96 39h246l-195 -74l-55 8l-279 -1315h236l-195 -66h-189z" />
    <glyph glyph-name="backslash" unicode="\" horiz-adv-x="938" 
d="M727 135l-214 1016q-13 61 -43 125q-33 70 -57 92l-72 49l9 17h170l301 -1407q12 -47 29 -72h-98q2 8 2 32q0 31 -4 48z" />
    <glyph glyph-name="bracketright" unicode="]" horiz-adv-x="565" 
d="M652 1372l-297 -1364q-11 -30 -39 -43q-67 -39 -97 -39h-246l197 74l56 -8l281 1314h-238l192 66h191z" />
    <glyph glyph-name="asciicircum" unicode="^" horiz-adv-x="819" 
d="M379 756l-19 18l107 74q90 62 152 135q14 -23 22 -32q4 -6 25 -29q60 -67 145 -101l-96 -69q-35 16 -104 84l-54 53q-27 -39 -106 -88z" />
    <glyph glyph-name="underscore" unicode="_" horiz-adv-x="942" 
d="M166 -33h942l-190 -87h-943z" />
    <glyph glyph-name="grave" unicode="`" horiz-adv-x="615" 
d="M313 899q-9 7 -9 27q5 19 26.5 36t40.5 17q16 -6 22 -10l105 -121q61 -70 61 -90q-18 0 -98 43q-69 37 -148 98z" />
    <glyph glyph-name="a" unicode="a" horiz-adv-x="778" 
d="M588 221l-76 263q-114 0 -216 -74q-109 -78 -125 -187q-2 -18 -2 -38q0 -111 128 -111q87 0 199 74q39 26 92 73zM236 -8q-198 0 -198 156q0 27 4 45q31 142 218 239q146 76 246 76l-29 98q-8 41 -28 58q-24 17 -53 18q-32 1 -60 -14q-6 -3 -9 -6q20 30 89 63
q61 29 84 86l39 -59q36 -71 53 -129l178 -623h-118l-58 197q-23 -21 -67 -60q-13 -11 -54 -43q-139 -102 -237 -102z" />
    <glyph glyph-name="b" unicode="b" horiz-adv-x="824" 
d="M92 332q24 105 105 204q38 47 141 142q76 70 84 103q2 8 2 22q0 49 -61 86l-54 33q50 24 119 29l82 6q18 1 46.5 19t52.5 18q4 -13 4 -23l-6 -37q-8 -48 -103 -166q-157 -194 -179 -223q-99 -139 -115 -237q-5 -32 -5 -64q0 -68 27 -121q43 -108 151 -108q123 0 208 109
q67 87 98 224q12 53 12 101q0 68 -33 123q-40 67 -119 67q-68 0 -153 -51q-5 -2 -13 -6q10 37 82 72q69 34 139 34q113 0 174 -71q50 -58 50 -152v-49q-4 -15 -8 -35q-28 -128 -144 -252q-137 -147 -299 -147q-150 0 -233 100q-60 73 -60 172q0 13 4 39t4 39z" />
    <glyph glyph-name="c" unicode="c" horiz-adv-x="758" 
d="M541 707q92 0 162 -51q55 -40 55 -66q-2 -7 -20 -16q-14 -11 -54 -27l-73 -22l14 40q4 21 4 31q0 19 -10 39q-27 39 -97 39q-113 0 -200 -108q-74 -91 -100 -213q-10 -46 -10 -84q0 -81 42 -144q62 -94 187 -94q83 0 186 78l94 71l-88 -102q-125 -96 -252 -96
q-166 0 -242 106q-48 67 -48 170q0 148 68 250q38 57 105 105q131 94 277 94z" />
    <glyph glyph-name="d" unicode="d" horiz-adv-x="834" 
d="M522 692q97 0 164 -33q27 -10 56 -32l32 156q2 6 2 20q0 36 -27 66q-48 53 -65 53q83 12 149 51l142 84q-4 -19 -10 -31q-56 -110 -70 -174l-156 -737q-8 -38 -8 -66v-6l16 -42l-139 -1l14 66q-31 -26 -61 -41q-87 -43 -190 -43q-166 0 -238 100q-50 69 -50 168
q0 47 10 96q28 137 158 241.5t271 104.5zM514 659q-119 0 -201 -100q-68 -83 -96 -213q-15 -69 -15 -120q0 -59 19 -107q41 -104 156 -104q79 0 169.5 59t102.5 115l66 315q2 10 2 16q0 39 -43 80q-63 59 -160 59z" />
    <glyph glyph-name="e" unicode="e" horiz-adv-x="729" 
d="M78 344q32 155 143 256q117 107 271 107q151 0 209 -101l16 -100h-467l-10 -22l-35 -121q-11 -38 -11 -97q0 -81 42 -143q62 -92 178 -92q70 0 160 51l90 51l-80 -82q-109 -69 -238 -69q-134 0 -217 108q-29 38 -45 84q-15 43 -15 97q0 29 9 73zM266 539h338l-4 41
q-22 94 -139 94q-73 0 -144 -67q-16 -15 -48 -64z" />
    <glyph glyph-name="f" unicode="f" horiz-adv-x="574" 
d="M8 -402l197 918q2 9 2 35q0 27 -2 41q-6 17 -14 35q-32 70 -45 72l125 -13q30 0 45 4l41 25q35 22 106 57q55 21 94 21q64 0 115 -49q39 -37 39 -62v-4l-22 -4q-40 0 -68 -10q-53 -19 -94 -78l12 35l19 51q2 5 2 14v9q0 49 -56 49q-51 0 -104 -54q-66 -67 -88 -170
l-99 -462l47 6q66 24 105 24q24 0 43 -8l49 -12l45 -4l50 2l-4 -6q-23 -23 -62 -41q-37 -13 -80 -13q-35 0 -58 11q-49 18 -98 18q-41 0 -43 -10l-74 -341z" />
    <glyph glyph-name="g" unicode="g" horiz-adv-x="844" 
d="M131 639l90 60q32 20 84 59l23 -20q11 -10 29 -25q34 -25 94 -25h422l-33 -49h-178q-155 0 -293 -105q-141 -107 -171 -257q-6 -30 -6 -58q0 -49 21 -92q42 -86 135 -86q84 0 183 66q115 77 190 219q32 61 72 184q34 105 43 109l-4 -80q-4 -75 -30 -201
q-59 -284 -157 -459q-160 -287 -430 -287q-107 0 -186 72l-52 76q44 12 144 129q40 47 73 57l-26 -51q-31 -61 -41 -105q-2 -9 -2 -22q0 -49 47.5 -84t96.5 -35q105 0 204 119q111 133 166 389q-60 -45 -110 -71q-141 -74 -269 -74q-95 0 -153 66q-46 52 -46 129q0 29 6 57
q34 159 175 272q116 93 250 123h-361z" />
    <glyph glyph-name="h" unicode="h" horiz-adv-x="862" 
d="M264 783q2 6 2 20q0 36 -27 66q-48 53 -65 53q60 10 135 51l156 84q-4 -19 -10 -31q-57 -111 -70 -174l-45 -217h35q78 33 136.5 48.5t119.5 15.5q141 0 185 -119q16 -43 16 -115q0 -62 -2 -78q-2 -12 -16 -81t-48 -154l-61 -152h-107q83 193 111 316q15 66 15 125
q0 83 -34 135q-48 73 -141 73q-73 0 -145 -40q-79 -44 -90 -95l-91 -432q-2 -9 -2 -22q0 -15 2 -21q10 -33 14 -39h-172q43 46 51 82z" />
    <glyph glyph-name="i" unicode="i" horiz-adv-x="410" 
d="M260 82q-6 -29 -6 -41v-6q0 -18 15 -35h-167q41 34 51 82l97 461q6 29 6 41q0 10 -2 22q-2 6 -6 15q-9 22 -31 35q-24 6 -35 16l-18 16h223z" />
    <glyph glyph-name="j" unicode="j" horiz-adv-x="410" 
d="M241 0q-30 -142 -129 -269q-83 -106 -162 -137q133 169 184 406l116 543q6 28 6 41q0 10 -2 22q-2 6 -6 15q-9 22 -31 35q-24 6 -35 16l-18 16h223z" />
    <glyph glyph-name="k" unicode="k" horiz-adv-x="836" 
d="M266 783q3 6 3 20q0 36 -27 66q-48 53 -66 53q61 11 136 51l155 84q-4 -19 -10 -31q-57 -111 -70 -174l-73 -352q0 -14 41 -14q85 0 190 36q121 41 135 97q2 8 2 22q0 19 -8 35l4 12h166l-61 -84q-111 -92 -271 -131q117 0 179 -88q53 -76 53 -198q0 -78 -23 -187h-106
q18 92 18 166q0 127 -57 201q-65 84 -189 84h-26q-11 0 -35 -6q-25 -9 -29 -21l-71 -342q-5 -24 -5 -31q0 -28 19 -51h-172q41 34 51 82z" />
    <glyph glyph-name="l" unicode="l" horiz-adv-x="516" 
d="M125 381q22 122 88 232l137 227q3 8 3 16q0 30 -17 52l-53 69q14 6 22 6q60 0 222 51l59 13q-260 -291 -338 -666q-16 -77 -16 -127q0 -80 37 -151q50 -95 145 -90l37 2q12 2 18 2q7 -2 11 -4q-2 -11 -48 -23l-79 -11q-132 0 -201 111q-42 67 -42 166q0 41 15 125z" />
    <glyph glyph-name="m" unicode="m" horiz-adv-x="1282" 
d="M684 0h-112q114 302 114 447q0 71 -26 129q-41 73 -131 73q-75 0 -136 -40q-64 -42 -81 -95l-91 -432q-4 -19 -4 -31q0 -28 19 -51h-172q41 34 51 82l88 416q4 19 4 37q0 45 -22 82q-39 66 -62 68l17 -2h12q22 0 98 12l76 12q22 0 22 -15v-4l-10 -53l39 2q141 62 227 62
q83 0 131 -35q17 -13 29 -35l101 41q71 29 182 29q146 0 189 -117q14 -38 14 -105q0 -74 -18 -163q-17 -85 -42 -150q-29 -88 -63 -164h-113l68 172q28 71 43 148q12 61 12 114q0 74 -27 125q-47 90 -145 90q-53 0 -107 -18q-41 -18 -71 -45q8 -57 8 -115q0 -51 -8 -104
q-7 -28 -13 -66q-11 -67 -36 -145q-17 -52 -54 -156z" />
    <glyph glyph-name="n" unicode="n" horiz-adv-x="865" 
d="M205 498q4 19 4 37q0 44 -23 82q-39 66 -61 68l29 -2l80 6l96 18q23 0 23 -12v-5l-13 -55l37 2q141 62 254 62q141 0 185 -119q16 -43 16 -115q0 -75 -16 -147q-12 -53 -42 -152q-23 -77 -63 -166h-107q36 85 62 166q20 62 45 164q13 52 13 109q0 92 -43 148
q-48 62 -138 62q-63 0 -136 -37q-81 -42 -93 -98l-91 -432q-4 -19 -4 -31q0 -28 18 -51h-172q41 36 51 82z" />
    <glyph glyph-name="o" unicode="o" horiz-adv-x="836" 
d="M654 72q-119 -90 -271 -90q-150 0 -233 90q-64 69 -64 180v31q0 9 11 61q37 173 169 273q119 90 271 90q150 0 233 -90q66 -71 66 -183q0 -33 -6 -70q-31 -182 -176 -292zM531 674q-121 0 -210 -108q-76 -92 -102 -222q-12 -60 -12 -108q0 -65 23 -117q46 -104 159 -104
q118 0 205 102q76 89 109 227q13 54 13 107q0 62 -26 119q-47 104 -159 104z" />
    <glyph glyph-name="p" unicode="p" horiz-adv-x="885" 
d="M18 -389l182 864q9 43 9 82q0 85 -62 131l11 7l31 2q20 1 41 -2q12 -4 34 -15q39 -12 66 -51q32 19 74 35q96 37 184 37q184 0 256 -90q51 -64 51 -158q0 -45 -8 -84q-33 -162 -159 -269q-129 -110 -292 -110q-97 0 -167 41q-30 17 -48 41l-49 -234q-6 -29 -6 -53
q0 -28 10 -51q18 -41 35 -41q-41 -9 -112 -58q-64 -44 -76 -47q-5 12 -5 23zM318 518l-68 -315q-2 -9 -2 -16q0 -49 55 -101q67 -63 140 -63q107 0 208 123q89 108 113 223q10 48 10 84q0 70 -32 127q-49 88 -162 88q-63 0 -154 -47q-97 -50 -108 -103z" />
    <glyph glyph-name="q" unicode="q" horiz-adv-x="881" 
d="M704 -277q-39 -12 -135 -102q-14 -2 -24 -10l96 461q-16 -13 -63 -41q-86 -41 -185 -41q-174 0 -256 111q-46 62 -46 157v51q7 24 9 35q31 149 143 246q129 111 302 111q49 0 147 -12t148 -12h31l59 4l-8 -19q-60 -60 -70 -106l-158 -739q-2 -9 -2 -28q0 -27 16 -53z
M537 668q-114 0 -207 -108q-80 -94 -108 -216q-10 -44 -10 -98q0 -74 27 -127q49 -96 161 -96q60 0 157 62q101 65 113 118l68 315q2 9 2 13q0 44 -64 88q-71 49 -139 49z" />
    <glyph glyph-name="r" unicode="r" horiz-adv-x="752" 
d="M627 565q2 8 2 21q0 33 -29 55q-35 27 -96 27q-156 0 -172 -74l-55 -260q99 11 155 33q163 63 195 198zM119 94l96 459q4 19 4 39q0 30 -12 51q-23 41 -48 45l28 2h16q65 0 100 -22q12 -8 27 -25q42 33 105 53.5t122 20.5q72 0 126 -27q69 -35 69 -100q0 -16 -2 -25
q-27 -125 -213 -198q-15 -6 -74 -21q-87 -22 -106 -26q145 -25 236 -160q86 -127 157 -127l-37 -16q-44 -19 -80 -19q-27 0 -49 12q-31 17 -104 106q-83 103 -107 124q-15 12 -41 33q-18 10 -41 20q-16 0 -25 -4l-41 -195q-4 -19 -4 -49q0 -26 17 -45h-173q11 8 31 39
q9 24 23 55z" />
    <glyph glyph-name="s" unicode="s" horiz-adv-x="697" 
d="M65 146l27 6q29 6 41 20l66 60l39 30q-41 -45 -52 -96q-4 -18 -4 -35q0 -32 21 -69q31 -43 88 -43q149 0 180 168q2 11 2 16q0 78 -182 125q-177 45 -177 147q0 17 2 27q20 96 130 154q95 51 203 51q99 0 167 -37q85 -46 85 -137q0 -31 -4 -47q-24 -5 -41 -11
q-13 -6 -41 -18q-51 -21 -101 -57l23 30q27 35 35 78q6 31 6 43q0 41 -27 76q-36 47 -108 47q-81 0 -144 -43q-56 -38 -71 -109q-2 -9 -2 -24q0 -70 92 -103q85 -27 170 -53q92 -40 92 -127q0 -14 -4 -37q-15 -86 -111 -143q-83 -49 -188 -49q-88 0 -145 35q-67 42 -67 125z
" />
    <glyph glyph-name="t" unicode="t" horiz-adv-x="789" 
d="M143 271q32 142 203 268q53 39 168 100h-386l23 35q72 49 93 80q10 -34 79 -53q50 -13 99 -13h475l-35 -49h-208q-127 0 -241.5 -110.5t-142.5 -237.5q-7 -32 -7 -59q0 -71 36 -123q51 -74 154 -74q59 0 143 35l84 35q0 -13 -41 -43q-104 -77 -243 -77q-137 0 -210 81
q-52 58 -52 137q0 28 9 68z" />
    <glyph glyph-name="u" unicode="u" horiz-adv-x="824" 
d="M86 297q19 92 80 170q15 19 47 62q10 14 21 30q2 6 2 15q0 41 -51 94q2 6 2 10q0 6 -2 10h206l-16 -43q-124 -148 -166 -348q-10 -48 -10 -82q0 -87 54 -133.5t143 -46.5q75 0 151 37q73 36 84 86l87 405q4 19 4 31q0 21 -15 45l-43 37v12h219q-32 -28 -49 -82l-110 -524
q-4 -19 -4 -31q0 -28 18 -52l-139 1l18 84q-126 -99 -279 -99q-157 0 -221 87q-41 56 -41 139q0 37 10 86z" />
    <glyph glyph-name="v" unicode="v" horiz-adv-x="778" 
d="M145 688h234q10 0 14 -2v-2q-1 -5 -4 -10q-60 -94 -60 -139v-6q0 -132 44 -275l39 -127l133 201q136 206 168 264q8 21 8 31q0 22 -26 53v12h161l-51 -79l-172 -240l-270 -392l-39 85q-33 207 -66 336q-32 124 -74 211q-11 24 -33 67z" />
    <glyph glyph-name="w" unicode="w" horiz-adv-x="1200" 
d="M545 107q-55 -52 -96 -74q-48 -26 -86 -36q-44 -12 -99 -12q-113 0 -161 87q-27 49 -27 125q0 55 14 119q9 45 47 110l86 109l11 24q2 4 2 11q0 34 -49 96l-2 22h206l-16 -43q-121 -144 -166 -348q-10 -45 -10 -90q0 -65 22 -106q35 -66 105 -66q71 0 144 42q36 21 69 54
q-4 19 -7 34t-3 38q0 33 12 94q15 74 58 142l61 96l10 24q2 5 2 11q0 34 -49 96l-2 22h207l-10 -43q-112 -155 -156 -350q-10 -44 -10 -92q0 -168 149 -168q26 0 58 10.5t67 30.5q74 42 82 82l86 405q4 19 4 31q0 21 -14 45l-43 37v12h219q-32 -28 -49 -82l-110 -524
q-5 -24 -5 -31q0 -28 19 -52l-139 1l18 84q-128 -99 -269 -99q-95 0 -145 60q-20 24 -35 62z" />
    <glyph glyph-name="x" unicode="x" horiz-adv-x="891" 
d="M-285 -398l51 41q99 80 219 213q175 195 419 523q-44 137 -85 194.5t-98 57.5q-34 0 -65 -16l-21 -11q3 27 65 57q57 27 89 27q163 0 209 -194q162 194 336 194q63 0 125 -36l-62 -64l-73 -45q-9 31 -27 47q-21 15 -45 16q-72 2 -137 -69l-97 -105l74 -258
q38 -133 111 -133q26 0 51 25q6 8 13 20.5t16 38.5q2 10 2 33q0 22 -4 35q8 -18 51 -51q18 -13 29 -27q2 -4 8 -10q-98 -113 -181 -113q-100 0 -178 127q-26 43 -80 190q-240 -381 -467 -575q-154 -132 -236 -132h-12z" />
    <glyph glyph-name="y" unicode="y" horiz-adv-x="824" 
d="M86 297q17 85 82 172l66 88q2 8 2 17q0 45 -49 96q0 14 -2 18h206l-16 -43q-122 -146 -166 -348q-8 -37 -8 -78q0 -69 35 -118q47 -66 145 -66q80 0 159.5 37t90.5 86l87 405q4 19 4 31q0 21 -15 45l-43 37v12h219q-32 -28 -49 -82l-111 -520q-47 -222 -229 -359
q-159 -120 -326 -120q-135 0 -162 88l142 139l-8 -31q-7 -27 -7 -47q0 -36 23 -63q35 -41 98 -41q102 0 201 96q105 102 154 303l8 33q-126 -99 -279 -99q-157 0 -221 87q-41 56 -41 139q0 36 10 86z" />
    <glyph glyph-name="z" unicode="z" horiz-adv-x="795" 
d="M4 23l712 585h-331q-60 0 -145 -18q-26 -5 -68 -16q-5 -1 -10 -4l88 79q41 37 70 82l28 -24q71 -43 201 -35l117 7l168 13q35 3 35 -8v-2l-14 -16l-607 -498l74 27q77 28 129 28q76 0 160 -71q41 -35 84 -35q26 0 55 12q6 4 19 6q10 0 12 2q-7 -11 -16 -22
q-22 -28 -60 -68q-76 -80 -96 -82q-22 0 -138 119q-54 56 -127 56q-103 0 -209 -74l-106 -74z" />
    <glyph glyph-name="braceleft" unicode="{" horiz-adv-x="447" 
d="M296 664q41 -27 53 -47q40 -47 40 -105q0 -18 -4 -37l-81 -381q-4 -19 -4 -41q0 -49 34 -88q49 -55 81 -55q-122 0 -184 49q-56 44 -56 127q0 35 4 54l72 335q4 19 4 41q0 55 -33 99q-16 21 -49 49q40 21 70 47q72 61 89 141l71 336q24 114 122 175q87 54 210 54
q-44 -6 -102 -53q-70 -57 -86 -131l-82 -381q-15 -72 -93 -139q-26 -23 -76 -49z" />
    <glyph glyph-name="bar" unicode="|" horiz-adv-x="301" 
d="M69 0l302 1415h106l-301 -1415h-107z" />
    <glyph glyph-name="braceright" unicode="}" horiz-adv-x="447" 
d="M443 664q-49 -26 -74 -47q-81 -68 -97 -142l-80 -381q-15 -70 -88 -129q-68 -55 -101 -55q119 0 205 49q100 57 126 181l71 335q16 75 91 140l69 49q-33 24 -49 47q-32 47 -32 102q0 30 2 39l71 336q6 28 6 57q0 123 -133 160q-43 12 -107 12q43 -6 82 -53q31 -37 31 -92
q0 -30 -2 -39l-82 -381q-4 -19 -4 -35q0 -49 39 -104q10 -11 27 -25q18 -17 29 -24z" />
    <glyph glyph-name="asciitilde" unicode="~" horiz-adv-x="856" 
d="M304 754l56 29q54 28 122 28q47 0 99 -26.5t101 -26.5q52 0 104.5 32t100.5 107q-15 -13 -43 -26q-60 -27 -109 -27q-46 0 -86 16q-91 37 -133 37q-101 0 -212 -143z" />
    <glyph glyph-name="nonbreakingspace" unicode="&#xa0;" horiz-adv-x="488" 
 />
    <glyph glyph-name="exclamdown" unicode="&#xa1;" horiz-adv-x="402" 
d="M239 160q-2 -9 -2 -23q0 -33 27 -63q48 -53 65 -53q-57 -8 -137 -52l-154 -84l8 31q10 19 37 80q25 56 33 94l150 705q4 19 4 31q0 28 -18 51h172q-41 -34 -51 -82zM459 1037q-22 -86 -104 -86q-38 0 -54.5 22.5t-16.5 42.5q0 50 40 82q31 25 65 25q72 0 72 -68
q0 -10 -2 -18z" />
    <glyph glyph-name="cent" unicode="&#xa2;" horiz-adv-x="758" 
d="M522 826q5 30 5 51v12q0 23 -23 45l-33 31q-18 17 -18 26v3q10 6 18 6h154l-37 -172q86 0 150 -52q47 -38 47 -63v-2q-4 -12 -76 -43l-71 -23l12 43q4 14 4 33q0 14 -6 25q-16 30 -70 30l-133 -624q77 0 164 49l137 100l-80 -96q-109 -86 -232 -102q-2 -5 -4 -58l-2 -45
h-98q22 41 39 105q-136 0 -207 106q-46 68 -46 168q0 52 15 119q28 124 147 226t244 102zM381 164l131 612q-72 0 -149 -77q-83 -84 -115 -226q-9 -40 -9 -84q0 -173 142 -225z" />
    <glyph glyph-name="sterling" unicode="&#xa3;" horiz-adv-x="1045" 
d="M414 594l-109 -514q0 -43 154 -43q133 0 270 29q159 35 252 96l-119 -215q-34 25 -199 32l-385 17l-223 4l72 51q44 31 59 101l92 434q-86 -12 -127 -35l-14 -6q2 24 43.5 55.5t112.5 51.5l63 303q6 29 6 57q0 41 -28 106q-2 9 -9 19l126 -12q43 0 86 28q49 38 110 56
q70 20 127 20q196 0 242 -113q-48 0 -90 -14q-50 -17 -96 -78l12 29q12 17 16 49l4 35q-6 59 -86 59q-98 0 -181.5 -70t-104.5 -167l-62 -291q66 0 133 -21q58 -18 107 -18q37 0 86 12l14 2q-3 -20 -66 -50q-59 -28 -85 -28q-25 0 -86 15q-57 14 -117 14z" />
    <glyph glyph-name="currency" unicode="&#xa4;" horiz-adv-x="1241" 
d="M879 1200q-132 0 -243 -92t-139 -221q-8 -37 -8 -70q0 -88 51 -153q73 -92 204 -92t241.5 93t139.5 222q8 35 8 70q0 83 -53 151q-71 92 -201 92zM459 1420l164 -207q81 50 141 70t133 20q78 0 131 -23q60 -20 111 -67l248 207l57 -74l-250 -205q30 -46 39 -113
q2 -15 2 -51v-53q-3 -16 -8 -39q-29 -139 -142 -256l162 -205l-88 -74l-159 207q-93 -62 -203 -82q-32 -6 -76 -6q-142 0 -237 88l-252 -207l-57 74l250 205q-17 33 -24 59q-17 42 -17 107v37q0 78 60 186q41 74 90 123l-162 205z" />
    <glyph glyph-name="yen" unicode="&#xa5;" horiz-adv-x="1411" 
d="M352 0l16 74q175 0 228 31q45 26 69 139l77 356h-552l15 68h512l-86 234h-375l15 69h335l-84 225q-33 99 -82 125q-13 7 -31 14q-14 4 -34 6q-37 10 -84 10l16 75h619l-16 -75h-29q-112 0 -135 -9q-27 -11 -33 -39l-2 -21l6 -20l182 -557l324 422q11 15 29 39l22 36
q27 44 27 76q0 73 -146 73l17 75h516l-17 -75q-107 0 -198 -63q-95 -65 -201 -206l-84 -111h363l-15 -69h-397l-180 -234h527l-15 -67l-551 -1l-76 -356q-3 -20 -8 -47q-2 -11 -2 -33q0 -35 14 -53q50 -37 213 -37l-16 -74h-693z" />
    <glyph glyph-name="brokenbar" unicode="&#xa6;" horiz-adv-x="301" 
d="M243 815l128 600h106l-127 -600h-107zM69 -4l128 600h106l-127 -600h-107z" />
    <glyph glyph-name="section" unicode="&#xa7;" horiz-adv-x="699" 
d="M436 811q-73 0 -139.5 -46.5t-85.5 -115.5q-4 -24 -4 -34q0 -97 123 -142q30 -11 152 -28q67 12 124 55q69 52 83 129q2 11 2 23q0 72 -117 122q-33 14 -138 37zM377 830q-87 26 -129 73q-27 30 -27 80q0 8 4 37q29 129 140 193q98 57 244 57q145 0 270 -59
q-20 -22 -43 -60q-19 -32 -31 -78q-6 29 -20 54q-17 25 -45 51q-63 59 -154 59q-98 0 -182 -41q-78 -38 -101 -116q-4 -21 -4 -31q0 -88 121 -136q113 -36 226 -73q121 -49 121 -141q0 -18 -2 -27q-41 -185 -249 -242q62 -15 90 -32q73 -44 73 -115q0 -19 -4 -37
q-26 -121 -154 -196q-114 -68 -246 -68q-107 0 -208 47q9 14 15 18q20 21 34 56l3 22l8 35q4 16 10 18q0 -60 49.5 -111.5t147.5 -51.5q86 0 172 60q94 65 94 148q0 102 -237 162q-232 59 -232 178q0 20 2 29q38 165 179 215z" />
    <glyph glyph-name="dieresis" unicode="&#xa8;" horiz-adv-x="729" 
d="M233 830q13 67 95 78q35 0 51 -21q10 -16 10 -41v-16q-6 -35 -30.5 -54.5t-63.5 -23.5q-62 0 -62 65v13zM522 830q15 67 95 78q35 0 51 -21q10 -16 10 -41v-16q-13 -69 -94 -78q-62 0 -62 65v13z" />
    <glyph glyph-name="copyright" unicode="&#xa9;" horiz-adv-x="1024" 
d="M191 615q-13 -57 -13 -109q0 -126 78 -209q100 -106 271 -106q189 0 333 120q141 118 182 304q12 55 12 106q0 126 -77 211q-97 107 -270 107t-316 -105q-153 -113 -200 -319zM142 615q45 223 223 354q162 119 352 119q194 0 301 -117q86 -94 86 -240q0 -60 -12 -116
q-48 -226 -223 -355q-159 -118 -353 -118q-195 0 -301 116q-86 94 -86 240q0 53 13 117zM713 889h215l-10 -8l-25 -25l-14 -28l-6 -25q-35 63 -164 63q-119 0 -207 -71q-123 -99 -123 -258q0 -66 29 -117q44 -78 149 -78q140 0 242 123l-14 -74q-101 -72 -242 -72
q-129 0 -193 74q-45 52 -45 138q0 178 142 280q108 78 266 78z" />
    <glyph glyph-name="ordfeminine" unicode="&#xaa;" horiz-adv-x="586" 
d="M279 748h424l-133 -60h-425zM576 928l-37 131q-53 0 -104 -35.5t-66 -85.5q-4 -28 -4 -35q0 -12 9 -30.5t56 -18.5q52 0 99 37zM400 813q-55 0 -82 27q-17 17 -17 49q0 15 2 25q14 69 109 118q75 39 123 39l-15 50q-7 22 -18 30l-25 8l-26 -6l-6 -4q12 14 45 31
q27 14 43 43l18 -31l27 -63l90 -312h-59l-29 99l-62 -51q-63 -52 -118 -52z" />
    <glyph glyph-name="guillemotleft" unicode="&#xab;" horiz-adv-x="942" 
d="M617 697q-52 -101 -142 -195q-103 -107 -217 -149q67 -62 112 -113q116 -133 132 -223l-131 -32q-19 116 -158 234l-140 119q148 48 263 154q89 82 137 184zM998 697q-51 -100 -142 -195q-103 -107 -217 -149q72 -66 113 -113q115 -132 131 -223l-131 -32
q-20 116 -158 234l-139 119q146 47 262 154q91 83 138 184z" />
    <glyph glyph-name="logicalnot" unicode="&#xac;" horiz-adv-x="1706" 
d="M436 858h1199l-107 -501h-114l82 384h-1085z" />
    <glyph glyph-name="minus" unicode="&#xad;" horiz-adv-x="776" 
d="M238 545h553l-105 -87h-553z" />
    <glyph glyph-name="minus" unicode="&#x2212;" horiz-adv-x="776" 
d="M238 545h553l-105 -87h-553z" />
    <glyph glyph-name="registered" unicode="&#xae;" horiz-adv-x="1024" 
d="M223 774q-10 -44 -10 -106q0 -129 76 -211q99 -107 270 -107q173 0 316 105q154 114 201 319q12 53 12 109q0 124 -78 209q-97 106 -270 106q-171 0 -314 -104q-156 -113 -203 -320zM174 774q48 225 224 355q159 118 352 118q195 0 301 -116q86 -94 86 -240
q0 -57 -12 -117q-45 -224 -222 -354q-161 -119 -354 -119q-194 0 -301 117q-86 94 -86 242q0 58 12 114zM789 983q2 9 2 27q0 20 -13 37q-20 20 -61 20q-45 0 -92 -24q-34 -18 -41 -49l-45 -216q75 20 110 37q115 55 140 168zM422 551l90 424q4 19 4 31q0 16 -14 47t-35 35
l31 2q50 3 74 -27l10 -29q90 68 178 68q113 0 113 -94v-17q-23 -94 -146 -170q-42 -26 -123 -55q42 -16 133 -144q88 -124 164 -147h-141q-35 23 -90 113l-61 100q-25 41 -56 56q-14 0 -22 -4l-41 -189l-6 -43v-8q0 -12 6 -25h-101q13 13 21 33z" />
    <glyph glyph-name="macron" unicode="&#xaf;" horiz-adv-x="854" 
d="M263 754h445l195 65h-442z" />
    <glyph glyph-name="macron" unicode="&#x2c9;" horiz-adv-x="854" 
d="M263 754h445l195 65h-442z" />
    <glyph glyph-name="degree" unicode="&#xb0;" horiz-adv-x="422" 
d="M291 1043q12 53 66 91t110 38q52 0 82 -41q23 -31 23 -64q0 -14 -2 -24q-11 -53 -61 -96.5t-103 -43.5q-51 0 -84 33t-33 84q2 14 2 23zM410 936q84 0 105 80q2 7 2 25q0 25 -17 55q-25 43 -61 43q-27 0 -56.5 -21.5t-35 -47t-5.5 -36.5q0 -25 15 -55q21 -43 53 -43z" />
    <glyph glyph-name="plusminus" unicode="&#xb1;" horiz-adv-x="1706" 
d="M287 158h1198l-25 -117h-1199zM1045 1180h118l-72 -344h539l-24 -116l-539 -1l-73 -344h-120l74 344h-541l25 117h541z" />
    <glyph glyph-name="twosuperior" unicode="&#xb2;" horiz-adv-x="590" 
d="M214 705l199 144q193 140 226 269q4 16 4 25v18q0 48 -22 72q-35 39 -92 39q-72 0 -85 -45v-14q0 -25 25 -54l-21 5l-44 6l-65 -6q6 30 74 77q79 54 171 54q63 0 100 -27t37 -72q0 -9 -4 -28q-25 -120 -187 -263q-48 -42 -205 -151h216q49 0 76 14l53 27l-35 -45
q-35 -45 -47 -82q-10 16 -66 27q-45 10 -73 10h-235z" />
    <glyph glyph-name="threesuperior" unicode="&#xb3;" horiz-adv-x="584" 
d="M469 1168l-20 8l-41 14l-62 4q67 99 222 99q60 0 106 -29q37 -23 37 -57q0 -7 -2 -15q-16 -61 -71 -100l-92 -41q116 -57 116 -152q0 -26 -4 -39q-15 -74 -87 -122q-67 -46 -145 -46q-76 0 -139 33l-37 37q40 4 74 21l37 18q-4 -20 -4 -31q0 -59 63 -59q37 0 82 33
q59 43 74 116q6 29 6 52q0 30 -16 63q-27 55 -101 64q141 33 167 125q2 7 2 24q0 39 -40 65q-35 23 -76 23q-63 0 -63 -55q0 -21 14 -53z" />
    <glyph glyph-name="acute" unicode="&#xb4;" horiz-adv-x="615" 
d="M634 899q14 6 20 27v4q0 49 -41 49q-21 -6 -27 -10q-48 -32 -141 -105q-116 -90 -116 -106q29 7 107 41q36 16 109 51q24 13 89 49z" />
    <glyph glyph-name="mu" unicode="&#xb5;" horiz-adv-x="1121" 
d="M205 193q-52 -127 -123 -339q-91 -272 -170 -272q-36 0 -50 19.5t-14 45.5q0 14 2 23q23 107 143 347q161 321 175 354l219 514h148l-232 -551l-14 -53q-7 -26 -7 -53q0 -41 21 -76q35 -45 109 -45q93 0 175.5 67.5t139.5 200.5l219 510h150l-277 -668q-4 -24 -4 -32
q0 -25 16 -50.5t56 -25.5q33 0 70 18q40 26 61 51q8 10 31 41q11 17 31 52q32 61 51 61q14 0 16 -10q4 -6 4 -27q-6 -27 -26 -67q-23 -46 -48 -82q-112 -165 -264 -165q-65 0 -98 52q-16 33 -16 76q0 29 6 63l4 23q-130 -218 -326 -218q-96 0 -143 54q-19 22 -27 63.5
t-8 98.5z" />
    <glyph glyph-name="mu" unicode="&#x3bc;" horiz-adv-x="1121" 
d="M205 193q-52 -127 -123 -339q-91 -272 -170 -272q-36 0 -50 19.5t-14 45.5q0 14 2 23q23 107 143 347q161 321 175 354l219 514h148l-232 -551l-14 -53q-7 -26 -7 -53q0 -41 21 -76q35 -45 109 -45q93 0 175.5 67.5t139.5 200.5l219 510h150l-277 -668q-4 -24 -4 -32
q0 -25 16 -50.5t56 -25.5q33 0 70 18q40 26 61 51q8 10 31 41q11 17 31 52q32 61 51 61q14 0 16 -10q4 -6 4 -27q-6 -27 -26 -67q-23 -46 -48 -82q-112 -165 -264 -165q-65 0 -98 52q-16 33 -16 76q0 29 6 63l4 23q-130 -218 -326 -218q-96 0 -143 54q-19 22 -27 63.5
t-8 98.5z" />
    <glyph glyph-name="paragraph" unicode="&#xb6;" horiz-adv-x="1024" 
d="M1262 1479l-16 -77h-125l-297 -1402h-95l298 1401h-182l-298 -1401h-96l166 783q-162 0 -252 102q-58 66 -58 166v33q0 7 9 47q36 160 161 254t306 94h479z" />
    <glyph glyph-name="periodcentered" unicode="&#xb7;" horiz-adv-x="389" 
d="M166 512q-2 -7 -2 -20q0 -21 10 -37q21 -21 54 -21q73 0 94 78q2 7 2 21q0 57 -64 57q-71 0 -94 -78z" />
    <glyph glyph-name="periodcentered" unicode="&#x2219;" horiz-adv-x="389" 
d="M166 512q-2 -7 -2 -20q0 -21 10 -37q21 -21 54 -21q73 0 94 78q2 7 2 21q0 57 -64 57q-71 0 -94 -78z" />
    <glyph glyph-name="cedilla" unicode="&#xb8;" horiz-adv-x="819" 
d="M508 0q-41 0 -51 -37v-8q0 -38 41 -92q20 -26 20 -46q0 -6 -2 -10q-8 -37 -92 -63q-61 -19 -123 -19q-8 0 -12 2q-7 0 -11 2l11 7q51 12 75 34q33 25 33 54q0 25 -29 73q-34 57 -34 78q8 19 21 25h153z" />
    <glyph glyph-name="onesuperior" unicode="&#xb9;" horiz-adv-x="430" 
d="M413 735q0 -10 7 -22h-99q12 11 19 33l14 43l91 432q-1 5 -4 8q-7 4 -27 4h-14l-9 -2l62 41q34 22 55 27q14 0 14 -41z" />
    <glyph glyph-name="ordmasculine" unicode="&#xba;" horiz-adv-x="549" 
d="M279 748h375l-134 -60h-375zM684 991q-18 -84 -80.5 -133t-140.5 -49q-73 0 -110.5 41.5t-37.5 95.5q0 13 4 45q18 82 78.5 132.5t143.5 50.5q70 0 117 -49q32 -33 32 -84q0 -21 -6 -50zM537 1158q-53 0 -101 -50q-39 -50 -55 -117q-6 -25 -6 -53q0 -37 12 -63
q22 -47 80 -47q113 0 156 163q6 23 6 54q0 36 -12 63q-22 50 -80 50z" />
    <glyph glyph-name="guillemotright" unicode="&#xbb;" horiz-adv-x="942" 
d="M465 -8q58 110 142 195q104 106 219 149q-34 31 -65 62q-28 28 -48 51q-118 136 -131 223l131 31q13 -108 158 -234l137 -119q-145 -46 -262 -153q-88 -80 -137 -184zM84 -8q58 110 142 195q104 106 219 149q-39 35 -66 62q-18 18 -47 51q-119 138 -131 223l131 31
q13 -108 158 -234l137 -119q-145 -46 -262 -153q-88 -80 -137 -184z" />
    <glyph glyph-name="onequarter" unicode="&#xbc;" horiz-adv-x="609" 
d="M490 842q0 -12 8 -27h-98q15 23 18 33l12 43l93 428q0 14 -31 17h-15l-10 -3l64 41q14 11 30 19l23 8q17 0 17 -24q0 -8 -2 -17zM254 731h375l-53 -43h-376zM248 453q2 8 4 22v15q0 28 -15 45l-53 26l25 9l60 10l20 4q8 0 39 12l10 -4q-28 -137 -95 -255q-34 -60 -63 -99
h213l50 233q2 9 2 15q0 16 -11 28l-24 27q49 7 97 37l49 31l-2 -15q-27 -53 -35 -88l-58 -268h130l-82 -32l-56 -1l-35 -170q-2 -6 -2 -12q0 -10 8 -23h-98q11 9 18 31l15 45l26 129h-289l66 72q68 90 86 176z" />
    <glyph glyph-name="onehalf" unicode="&#xbd;" horiz-adv-x="609" 
d="M490 842q0 -12 8 -27h-98q15 23 18 33l12 43l93 428q0 14 -31 17h-15l-10 -3l64 41q14 11 30 19l23 8q17 0 17 -24q0 -8 -2 -17zM254 731h375l-53 -43h-376zM65 -4q125 85 197 144q199 162 228 270q4 15 4 24v19q0 50 -33 80t-84 30q-74 0 -82 -45v-16q0 -25 25 -51
l-23 4l-43 6l-66 -6q10 36 74 78q81 53 172 53q136 0 136 -100q0 -18 -2 -27q-27 -121 -189 -262q-51 -45 -203 -152h215q42 0 74 15l56 26l-37 -45q-32 -39 -45 -82q-41 37 -140 37h-234z" />
    <glyph glyph-name="threequarters" unicode="&#xbe;" horiz-adv-x="584" 
d="M496 1290l-21 9l-41 14l-62 4q34 49 95 74q58 24 127 24q61 0 107 -28q34 -21 34 -54q0 -12 -2 -18q-12 -61 -69 -100l-92 -41q116 -57 116 -152q0 -26 -4 -39q-14 -74 -86 -123q-66 -45 -145 -45q-76 0 -139 33l-38 37q44 5 74 20l37 19q-4 -25 -4 -33q0 -14 6 -31
q23 -26 58 -26q37 0 82 33q58 42 73 116q7 34 7 51q0 30 -17 64q-28 55 -100 63l73 25q76 37 91 100q2 8 2 27q0 35 -29 57q-39 29 -84 29q-63 0 -63 -55q0 -21 14 -54zM254 731h375l-53 -43h-376zM248 453q1 6 4 22v15q0 28 -15 45l-53 26l25 9l60 10l20 4q8 0 39 12l10 -4
q-28 -137 -95 -255q-34 -60 -63 -99h213l50 233q2 9 2 15q0 16 -11 28l-25 27q49 7 97 37l49 31l-2 -15q-10 -21 -20 -45q-6 -13 -15 -43l-57 -268h129l-82 -32l-55 -1l-35 -170q-3 -6 -3 -12q0 -10 9 -23h-99q12 9 19 31l14 45l27 129h-289l66 72q67 90 86 176z" />
    <glyph glyph-name="questiondown" unicode="&#xbf;" horiz-adv-x="760" 
d="M73 309q27 126 127 219q49 45 177 123q95 57 105 95q6 22 6 47q0 26 -13 49l-49 49q2 8 21 10l59 -12q59 -12 74 -12l86 24q6 -8 6 -12q-19 -93 -225 -254q-200 -156 -240 -326q-15 -63 -15 -120q0 -176 173 -176q103 0 184 88q62 68 88 168l10 75q0 29 -10 60l31 -8
q65 -60 65 -144q0 -28 -4 -49q-16 -83 -116.5 -153t-237.5 -70q-157 0 -246 92q-62 64 -62 168q0 41 6 69zM695 1077q-26 -86 -105 -86q-35 0 -57 25q-13 18 -13 41q0 50 39 82q31 25 68 25q70 0 70 -68q0 -8 -2 -19z" />
    <glyph glyph-name="Agrave" unicode="&#xc0;" horiz-adv-x="1229" 
d="M649 1436q-8 4 -8 18v9q2 18 24 35.5t40 17.5q18 -6 22 -10q23 -23 62 -68q33 -39 45 -53q59 -73 59 -88v-2q-28 8 -70 31l-22 12q-91 50 -152 98zM106 -21q0 97 19 191q51 255 258 477q181 195 412 304q-18 67 -62 180q-49 86 -141 98h240q76 0 84 -29q34 -123 110 -477
q25 -114 64 -282q17 -72 45 -187q60 -220 117 -254h-217q0 75 -49 260l-83 314l-45 153zM291 201l559 553l-43 158l-125 -52q-123 -92 -229 -227q-149 -190 -169 -336l-12 -86z" />
    <glyph glyph-name="Aacute" unicode="&#xc1;" horiz-adv-x="1229" 
d="M994 1436q12 7 21 27v4q0 14 -12 31.5t-32 17.5q-18 -6 -27 -10q-21 -16 -69 -52q-13 -10 -86 -69q-101 -82 -101 -90q38 9 115 43q104 46 191 98zM106 -21q0 97 19 191q51 255 258 477q181 195 412 304q-18 67 -62 180q-49 86 -141 98h240q76 0 84 -29q34 -123 110 -477
q25 -114 64 -282q17 -72 45 -187q60 -220 117 -254h-217q0 75 -49 260l-83 314l-45 153zM291 201l559 553l-43 158l-125 -52q-123 -92 -229 -227q-149 -190 -169 -336l-12 -86z" />
    <glyph glyph-name="Acircumflex" unicode="&#xc2;" horiz-adv-x="1229" 
d="M656 1299l-19 18l105 74q104 73 151 135l47 -61q47 -61 148 -101l-99 -69q-50 28 -104 84l-51 53q-31 -37 -109 -88zM106 -21q0 97 19 191q51 255 258 477q181 195 412 304q-18 67 -62 180q-49 86 -141 98h240q76 0 84 -29q34 -123 110 -477q25 -114 64 -282
q17 -72 45 -187q60 -220 117 -254h-217q0 75 -49 260l-83 314l-45 153zM291 201l559 553l-43 158l-125 -52q-123 -92 -229 -227q-149 -190 -169 -336l-12 -86z" />
    <glyph glyph-name="Atilde" unicode="&#xc3;" horiz-adv-x="1229" 
d="M555 1295l56 28q58 29 120 29q38 0 100 -26.5t101 -26.5q83 0 154 73q27 27 51 66q-17 -15 -43 -27q-58 -26 -109 -26q-46 0 -86 16q-91 37 -133 37q-99 0 -211 -143zM106 -21q0 97 19 191q51 255 258 477q181 195 412 304q-18 67 -62 180q-49 86 -141 98h240
q76 0 84 -29q34 -123 110 -477q25 -114 64 -282q17 -72 45 -187q60 -220 117 -254h-217q0 75 -49 260l-83 314l-45 153zM291 201l559 553l-43 158l-125 -52q-123 -92 -229 -227q-149 -190 -169 -336l-12 -86z" />
    <glyph glyph-name="Adieresis" unicode="&#xc4;" horiz-adv-x="1229" 
d="M594 1370q13 69 94 78q64 0 64 -61q0 -44 -33 -70q-25 -20 -63 -24q-62 0 -62 65v12zM883 1370q13 69 94 78q64 0 64 -61q0 -43 -33 -70q-25 -20 -64 -24q-61 0 -61 65v12zM106 -21q0 97 19 191q51 255 258 477q181 195 412 304q-18 67 -62 180q-49 86 -141 98h240
q76 0 84 -29q34 -123 110 -477q25 -114 64 -282q17 -72 45 -187q60 -220 117 -254h-217q0 75 -49 260l-83 314l-45 153zM291 201l559 553l-43 158l-125 -52q-123 -92 -229 -227q-149 -190 -169 -336l-12 -86z" />
    <glyph glyph-name="Aring" unicode="&#xc5;" horiz-adv-x="1229" 
d="M690 1434q13 54 66 91.5t109 37.5q47 0 77 -32t30 -79q0 -6 -3 -18q-14 -55 -61 -96q-50 -43 -105 -43q-59 0 -92 45q-23 32 -23 69q0 17 2 25zM809 1327q107 0 107 101q0 27 -17 59q-23 43 -61 43q-28 0 -57.5 -22t-34.5 -48q-6 -29 -6 -34q0 -21 14 -56q22 -43 55 -43z
M106 -21q0 97 19 191q51 255 258 477q181 195 412 304q-18 67 -62 180q-49 86 -141 98h240q76 0 84 -29q34 -123 110 -477q25 -114 64 -282q17 -72 45 -187q60 -220 117 -254h-217q0 75 -49 260l-83 314l-45 153zM291 201l559 553l-43 158l-125 -52q-123 -92 -229 -227
q-149 -190 -169 -336l-12 -86z" />
    <glyph glyph-name="AE" unicode="&#xc6;" horiz-adv-x="2147" 
d="M291 201l559 553l-43 158l-125 -52q-123 -92 -229 -227q-149 -190 -169 -336l-12 -86zM1233 15l19 -14h-218q0 71 -49 259l-82 314l-45 153l-752 -748q0 97 19 191q51 254 258 477q181 196 411 304q-18 68 -61 180q-48 86 -141 98h240q77 0 84 -29l51 -215l53 -235
q105 246 361 370q223 109 516 109h450q-18 -12 -22 -16q-25 -18 -47 -47q-37 -48 -45 -78l-13 -49q-64 70 -131 100q-90 40 -225 40q-201 0 -354 -77q-109 -55 -195 -147l-59 -80h669q153 0 279 86l-45 -205q-109 86 -242 86h-682l-18 -28q-43 -67 -72 -195
q-25 -111 -25 -193q0 -118 44 -213q91 -196 348 -196q134 0 270 60q165 73 279 216l-35 -164q-111 -65 -254 -112q-156 -50 -271 -50q-159 0 -268 48z" />
    <glyph glyph-name="Ccedilla" unicode="&#xc7;" 
d="M832 -31q-40 0 -58 -51v-4q0 -21 37 -56t37 -67q0 -36 -20 -52q-11 -9 -56 -25q-69 -23 -120 -23q-16 0 -19.5 2t-5.5 4l72 43q26 16 39 49q0 14 -37 71q-19 29 -19 58q10 35 21 51q-107 0 -213 48q-268 121 -268 426q0 81 19 172q62 294 333 462q244 152 561 152h479
l-74 -68q-28 -32 -49 -122q-51 75 -143.5 107.5t-229.5 32.5q-259 0 -457 -155q-200 -158 -255 -409q-19 -87 -19 -170q0 -154 70 -260q110 -166 328 -166q303 0 544 274l-32 -162q-83 -69 -250 -121q-132 -41 -215 -41z" />
    <glyph glyph-name="Egrave" unicode="&#xc8;" 
d="M879 1436q-8 4 -8 18v9q2 18 23 35.5t40 17.5q19 -6 23 -10q15 -16 61 -68q28 -32 45 -53q60 -75 60 -88v-2q-28 7 -71 31l-22 12q-88 48 -151 98zM1164 1229h450q-18 -12 -22 -16q-64 -46 -93 -125l-12 -49q-64 70 -131 100q-90 40 -225 40q-203 0 -355 -77
q-107 -54 -194 -147l-60 -80h670q151 0 279 86l-45 -205q-109 86 -242 86h-682l-18 -28q-45 -69 -72 -195q-25 -111 -25 -193q0 -120 43 -213q91 -196 348 -196q135 0 271 60q165 73 278 216l-34 -164q-111 -65 -254 -112q-156 -50 -271 -50q-316 0 -456 191
q-85 116 -85 285q0 82 19 172q65 311 339 472q239 142 579 142z" />
    <glyph glyph-name="Eacute" unicode="&#xc9;" 
d="M1342 1436q12 7 20 27v4q0 14 -11 31.5t-32 17.5q-18 -6 -26 -10q-31 -22 -70 -52q-20 -15 -86 -69q-100 -81 -100 -90q38 10 114 43q104 46 191 98zM1164 1229h450q-18 -12 -22 -16q-64 -46 -93 -125l-12 -49q-64 70 -131 100q-90 40 -225 40q-203 0 -355 -77
q-107 -54 -194 -147l-60 -80h670q151 0 279 86l-45 -205q-109 86 -242 86h-682l-18 -28q-45 -69 -72 -195q-25 -111 -25 -193q0 -120 43 -213q91 -196 348 -196q135 0 271 60q165 73 278 216l-34 -164q-111 -65 -254 -112q-156 -50 -271 -50q-316 0 -456 191
q-85 116 -85 285q0 82 19 172q65 311 339 472q239 142 579 142z" />
    <glyph glyph-name="Ecircumflex" unicode="&#xca;" 
d="M926 1299l-18 18l104 74q107 76 152 135l47 -61q47 -61 147 -101l-98 -69q-12 7 -45 32q-20 15 -60 52l-51 53q-34 -40 -108 -88zM1164 1229h450q-18 -12 -22 -16q-64 -46 -93 -125l-12 -49q-64 70 -131 100q-90 40 -225 40q-203 0 -355 -77q-107 -54 -194 -147l-60 -80
h670q151 0 279 86l-45 -205q-109 86 -242 86h-682l-18 -28q-45 -69 -72 -195q-25 -111 -25 -193q0 -120 43 -213q91 -196 348 -196q135 0 271 60q165 73 278 216l-34 -164q-111 -65 -254 -112q-156 -50 -271 -50q-316 0 -456 191q-85 116 -85 285q0 82 19 172
q65 311 339 472q239 142 579 142z" />
    <glyph glyph-name="Edieresis" unicode="&#xcb;" 
d="M918 1370q13 69 94 78q63 0 63 -61q0 -44 -32 -70q-25 -20 -64 -24q-61 0 -61 65v12zM1207 1370q13 69 94 78q63 0 63 -61q0 -43 -33 -70q-25 -20 -63 -24q-61 0 -61 65v12zM1164 1229h450q-18 -12 -22 -16q-64 -46 -93 -125l-12 -49q-64 70 -131 100q-90 40 -225 40
q-203 0 -355 -77q-107 -54 -194 -147l-60 -80h670q151 0 279 86l-45 -205q-109 86 -242 86h-682l-18 -28q-45 -69 -72 -195q-25 -111 -25 -193q0 -120 43 -213q91 -196 348 -196q135 0 271 60q165 73 278 216l-34 -164q-111 -65 -254 -112q-156 -50 -271 -50
q-316 0 -456 191q-85 116 -85 285q0 82 19 172q65 311 339 472q239 142 579 142z" />
    <glyph glyph-name="Igrave" unicode="&#xcc;" horiz-adv-x="527" 
d="M391 1436q-8 4 -8 18v9q2 18 24 35.5t40 17.5q18 -6 22 -10q23 -23 62 -68q33 -39 45 -53q59 -73 59 -88v-2q-28 8 -70 31l-22 12q-91 50 -152 98zM266 152l179 842q8 38 8 61q0 93 -78 121l-72 26q-16 6 -23 13q-8 4 -14 10l21 4h342l-242 -1163q0 -44 12 -66h-199
q25 25 41 64z" />
    <glyph glyph-name="Iacute" unicode="&#xcd;" horiz-adv-x="527" 
d="M748 1436q12 7 20 27v4q0 14 -11 31.5t-32 17.5q-18 -6 -26 -10q-30 -22 -70 -52q-24 -18 -87 -69q-100 -81 -100 -90q38 9 127 48q95 43 179 93zM266 152l178 842q8 38 8 61q0 93 -77 121l-72 26q-16 6 -23 13q-8 4 -14 10l21 4h342l-242 -1163q0 -44 12 -66h-199
q25 25 41 64z" />
    <glyph glyph-name="Icircumflex" unicode="&#xce;" horiz-adv-x="527" 
d="M316 1299l-19 18l104 74q107 76 152 135l47 -61q47 -61 148 -101l-99 -69q-50 28 -104 84l-51 53q-31 -37 -109 -88zM266 152l179 842q8 38 8 61q0 93 -78 121l-72 26q-16 6 -23 13q-8 4 -14 10l21 4h342l-242 -1163q0 -44 13 -66h-200q25 25 41 64z" />
    <glyph glyph-name="Idieresis" unicode="&#xcf;" horiz-adv-x="527" 
d="M315 1370q13 69 95 78q63 0 63 -61q0 -44 -32 -70q-25 -20 -64 -24q-62 0 -62 65v12zM604 1370q15 69 95 78q63 0 63 -61q0 -43 -33 -70q-25 -20 -63 -24q-62 0 -62 65v12zM266 152l178 842q8 38 8 61q0 93 -77 121l-72 26q-16 6 -23 13q-8 4 -14 10l21 4h342l-242 -1163
q0 -44 12 -66h-199q25 25 41 64z" />
    <glyph glyph-name="Eth" unicode="&#xd0;" horiz-adv-x="1602" 
d="M348 687q88 201 250 329q206 162 492 162q-29 0 -115 -27q-135 -43 -244 -135q-148 -126 -223 -328h277l-105 -87h-198l-7 -34q-16 -78 -16 -155q0 -123 51 -219q93 -176 324 -176q267 0 440 182q148 155 206 416q20 89 20 174q0 157 -81 254q-155 186 -620 186h-317
q58 0 134 73q60 57 97 122q12 -48 72.5 -97t156.5 -49q299 0 484 -102q235 -129 235 -404q0 -83 -16 -157q-53 -244 -289 -441q-248 -207 -532 -207q-264 0 -413 152q-117 120 -117 305q0 47 17 143l6 34h-190l105 86h116z" />
    <glyph glyph-name="Ntilde" unicode="&#xd1;" horiz-adv-x="1340" 
d="M674 1295l55 28q57 29 121 29q38 0 100 -26.5t101 -26.5q83 0 153 73q29 30 52 66q-19 -16 -43 -27q-58 -26 -109 -26q-46 0 -86 16q-91 37 -133 37q-101 0 -211 -143zM153 0q68 87 90 189l199 938l-86 61l-47 16q-39 13 -39 21l31 4h256l623 -1020l164 778q8 38 8 52
q0 10 -2 16q0 20 -19 68l-20 20q-40 42 -64 64l7 22h188l-254 -1186q-10 -48 -22 -51q-16 13 -21 21l-670 1060l-164 -778q-8 -38 -8 -74q0 -118 84 -221h-234z" />
    <glyph glyph-name="Ograve" unicode="&#xd2;" horiz-adv-x="1546" 
d="M957 1436q-9 4 -9 18v9q3 18 24 35.5t40 17.5q18 -6 22 -10q19 -19 62 -68q31 -35 45 -53q59 -74 59 -88v-2q-28 8 -70 31l-22 12q-95 52 -151 98zM1059 1262q275 0 432 -162q125 -129 125 -330q0 -78 -16 -155q-60 -287 -292 -469q-228 -179 -523 -179q-280 0 -435 162
q-123 128 -123 330q0 77 16 156q64 305 314 485q225 162 502 162zM795 17q209 0 385 147q195 163 255 451q18 86 18 172q0 166 -83 276q-113 150 -321 150q-207 0 -385 -148q-193 -160 -256 -450q-21 -96 -21 -172q0 -166 84 -277q113 -149 324 -149z" />
    <glyph glyph-name="Oacute" unicode="&#xd3;" horiz-adv-x="1546" 
d="M1243 1436q13 6 21 27v4q0 14 -11.5 31.5t-31.5 17.5q-19 -6 -27 -10q-21 -16 -69 -52q-13 -10 -86 -69q-101 -82 -101 -90q37 9 115 43q110 48 190 98zM1059 1262q275 0 432 -162q125 -129 125 -330q0 -78 -16 -155q-60 -287 -292 -469q-228 -179 -523 -179
q-280 0 -435 162q-123 128 -123 330q0 77 16 156q64 305 314 485q225 162 502 162zM795 17q209 0 385 147q195 163 255 451q18 86 18 172q0 166 -83 276q-113 150 -321 150q-207 0 -385 -148q-193 -160 -256 -450q-21 -96 -21 -172q0 -166 84 -277q113 -149 324 -149z" />
    <glyph glyph-name="Ocircumflex" unicode="&#xd4;" horiz-adv-x="1546" 
d="M893 1299l-18 18l104 74q107 76 152 135l47 -61q47 -61 147 -101l-98 -69q-47 26 -104 84l-52 53q-31 -39 -108 -88zM1059 1262q275 0 432 -162q125 -129 125 -330q0 -78 -16 -155q-60 -287 -292 -469q-228 -179 -523 -179q-280 0 -435 162q-123 128 -123 330
q0 77 16 156q64 305 314 485q225 162 502 162zM795 17q209 0 385 147q195 163 255 451q18 86 18 172q0 166 -83 276q-113 150 -321 150q-207 0 -385 -148q-193 -160 -256 -450q-21 -96 -21 -172q0 -166 84 -277q113 -149 324 -149z" />
    <glyph glyph-name="Otilde" unicode="&#xd5;" horiz-adv-x="1546" 
d="M793 1295l55 28q57 29 121 29q38 0 99.5 -26.5t101.5 -26.5q83 0 153 73q29 30 51 66q-17 -15 -43 -27q-58 -26 -108 -26q-46 0 -86 16q-91 37 -133 37q-101 0 -211 -143zM1059 1262q275 0 432 -162q125 -129 125 -330q0 -78 -16 -155q-60 -287 -292 -469
q-228 -179 -523 -179q-280 0 -435 162q-123 128 -123 330q0 77 16 156q64 305 314 485q225 162 502 162zM795 17q209 0 385 147q195 163 255 451q18 86 18 172q0 166 -83 276q-113 150 -321 150q-207 0 -385 -148q-193 -160 -256 -450q-21 -96 -21 -172q0 -166 84 -277
q113 -149 324 -149z" />
    <glyph glyph-name="Odieresis" unicode="&#xd6;" horiz-adv-x="1546" 
d="M865 1370q13 69 94 78q63 0 63 -61q0 -43 -33 -70q-25 -20 -63 -24q-61 0 -61 65v12zM1153 1370q13 69 94 78q64 0 64 -61q0 -43 -33 -70q-25 -20 -63 -24q-62 0 -62 65v12zM1059 1262q275 0 432 -162q125 -129 125 -330q0 -78 -16 -155q-60 -287 -292 -469
q-228 -179 -523 -179q-280 0 -435 162q-123 128 -123 330q0 77 16 156q64 305 314 485q225 162 502 162zM795 17q209 0 385 147q195 163 255 451q18 86 18 172q0 166 -83 276q-113 150 -321 150q-207 0 -385 -148q-193 -160 -256 -450q-21 -96 -21 -172q0 -166 84 -277
q113 -149 324 -149z" />
    <glyph glyph-name="multiply" unicode="&#xd7;" horiz-adv-x="842" 
d="M699 330l-199 252l-223 -186l-3 75l191 156l-100 127l-23 182l195 -248l250 205l4 -74l-215 -178l102 -129z" />
    <glyph glyph-name="Oslash" unicode="&#xd8;" horiz-adv-x="1546" 
d="M1344 1202l24 37q13 20 31 74l4 12l-4 13l-10 26l-8 29q12 8 20 8h170l-178 -227q14 0 78 -56q145 -130 145 -360q0 -66 -16 -143q-64 -308 -320 -488q-223 -157 -497 -157q-162 0 -291 61l-15 -21q-32 -45 -53 -88h-98l72 80l47 56q-145 88 -193 231q-25 74 -25 170
q0 78 16 156q58 285 292 467q228 178 522 178q154 0 287 -58zM408 615q-21 -93 -21 -176q0 -111 39 -199q22 -49 78 -109l795 1006l-66 37q-86 37 -186 37q-240 0 -420 -183q-163 -166 -219 -413zM1336 1102l-795 -1005l65 -39q89 -39 187 -39q222 0 405.5 170.5
t236.5 425.5q18 86 18 172q0 157 -68 256q-19 26 -49 59z" />
    <glyph glyph-name="Ugrave" unicode="&#xd9;" horiz-adv-x="1362" 
d="M834 1436q-8 4 -8 18v9q2 18 23 35.5t40 17.5q19 -6 23 -10q15 -16 61 -68q31 -35 45 -53q59 -74 59 -88v-2q-28 8 -70 31l-22 12q-95 52 -151 98zM233 565q37 178 166 320l162 178q7 6 7 17q0 16 -19 45q-28 31 -39.5 45.5t-38.5 50.5q11 8 19 8h258q12 0 14 -8
q-198 -180 -301 -447q-63 -164 -80 -305q-6 -49 -6 -92q0 -158 85.5 -248t244.5 -90q138 0 271 69.5t151 155.5l161 756q5 12 5 27v20q0 47 -21 80q-61 47 -74 64l4 18h265l-263 -1230l-133 1l31 142q-48 -40 -176 -99q-144 -66 -289 -66q-254 0 -363 185q-60 102 -60 238
q0 73 19 165z" />
    <glyph glyph-name="Uacute" unicode="&#xda;" horiz-adv-x="1362" 
d="M1153 1436q13 6 21 27v4q0 14 -11.5 31.5t-31.5 17.5q-19 -6 -27 -10q-47 -35 -70 -52q-13 -10 -86 -69q-100 -81 -100 -90q38 9 115 43q108 48 190 98zM233 565q37 178 166 320l162 178q7 6 7 17q0 16 -19 45q-28 31 -39.5 45.5t-38.5 50.5q11 8 19 8h258q12 0 14 -8
q-198 -180 -301 -447q-63 -164 -80 -305q-6 -49 -6 -92q0 -158 85.5 -248t244.5 -90q138 0 271 69.5t151 155.5l161 756q5 12 5 27v20q0 47 -21 80q-61 47 -74 64l4 18h265l-263 -1230l-133 1l31 142q-48 -40 -176 -99q-144 -66 -289 -66q-254 0 -363 185q-60 102 -60 238
q0 73 19 165z" />
    <glyph glyph-name="Ucircumflex" unicode="&#xdb;" horiz-adv-x="1362" 
d="M819 1299l-18 18l104 74q107 76 152 135l47 -61q47 -61 148 -101l-99 -69q-50 28 -104 84l-51 53q-33 -39 -109 -88zM233 565q37 178 166 320l162 178q7 6 7 17q0 16 -19 45q-28 31 -39.5 45.5t-38.5 50.5q11 8 19 8h258q12 0 14 -8q-198 -180 -301 -447
q-63 -164 -80 -305q-6 -49 -6 -92q0 -158 85.5 -248t244.5 -90q138 0 271 69.5t151 155.5l161 756q5 12 5 27v20q0 47 -21 80q-61 47 -74 64l4 18h265l-263 -1230l-133 1l31 142q-48 -40 -176 -99q-144 -66 -289 -66q-254 0 -363 185q-60 102 -60 238q0 73 19 165z" />
    <glyph glyph-name="Udieresis" unicode="&#xdc;" horiz-adv-x="1362" 
d="M787 1370q13 69 94 78q63 0 63 -61q0 -44 -32 -70q-25 -20 -64 -24q-61 0 -61 65v12zM1075 1370q15 69 95 78q63 0 63 -61q0 -43 -33 -70q-25 -20 -63 -24q-62 0 -62 65v12zM233 565q37 178 166 320l162 178q7 6 7 17q0 16 -19 45q-28 31 -39.5 45.5t-38.5 50.5
q11 8 19 8h258q12 0 14 -8q-198 -180 -301 -447q-63 -164 -80 -305q-6 -49 -6 -92q0 -158 85.5 -248t244.5 -90q138 0 271 69.5t151 155.5l161 756q5 12 5 27v20q0 47 -21 80q-61 47 -74 64l4 18h265l-263 -1230l-133 1l31 142q-48 -40 -176 -99q-144 -66 -289 -66
q-254 0 -363 185q-60 102 -60 238q0 73 19 165z" />
    <glyph glyph-name="Yacute" unicode="&#xdd;" horiz-adv-x="1362" 
d="M1247 201q-126 -590 -708 -590q-148 0 -289 36l-104 44q68 19 149 69q7 4 41 23q21 16 31 24v-8q0 -45 80 -90q87 -49 194 -49q149 0 267 106q134 120 194 376q-48 -40 -176 -99q-144 -66 -289 -66q-254 0 -363 185q-60 102 -60 238q0 73 19 165q37 178 166 320l162 178
q7 6 7 17q0 16 -19 45q-28 31 -39.5 45.5t-38.5 50.5q11 8 19 8h258q12 0 14 -8q-198 -180 -301 -447q-84 -219 -84 -391q0 -144 64 -229q87 -115 260 -115q141 0 276 70q132 68 150 155l161 756q5 12 5 27v20q0 47 -21 80q-61 47 -74 64l4 18h265zM1227 1432q12 7 18 26
q2 5 2 9q0 12 -12 26q-12 19 -31 19q-18 -6 -26 -11l-158 -120q-98 -74 -98 -91q52 17 112 43q83 36 193 99z" />
    <glyph glyph-name="Thorn" unicode="&#xde;" horiz-adv-x="1407" 
d="M1308 672q18 87 18 156q0 169 -103 264q-100 91 -272 91q-127 0 -242 -59q-118 -61 -133 -130l-174 -828q0 -33 75 -76q93 -41 207 -41q203 0 359 129q196 162 265 494zM598 1102q191 131 414 131q236 0 369 -141q106 -112 106 -287q0 -67 -14 -133q-62 -291 -318 -489
q-237 -183 -491 -183q-166 0 -279 101l-2 -19l-6 -22q-25 -100 -84 -277q-83 -191 -194 -217l36 81q40 90 74 250l320 1504q8 38 8 62q0 91 -78 120l-72 27q-34 13 -37 23l21 4h342z" />
    <glyph glyph-name="germandbls" unicode="&#xdf;" horiz-adv-x="1030" 
d="M586 582v-4q0 -33 182 -144q162 -98 162 -219q0 -22 -2 -32q-19 -98 -131 -156q-95 -50 -205 -50q-119 0 -183.5 51.5t-64.5 123.5q0 22 6 47l55 18q56 18 126 68l-25 -31q-20 -35 -33 -76q-4 -24 -4 -34q0 -41 25 -82q39 -52 115 -52q66 0 122 44t70 108q4 18 4 37
q0 114 -154 207q-164 100 -164 164v8q64 29 128 79t82 126q6 25 6 53q0 34 -13 67q-28 70 -94 70q-73 0 -129 -68q-68 -82 -84 -159l-154 -729l-125 -85l172 812q4 19 4 37q0 30 -18 71q-33 74 -45 74q47 0 72 -8l55 -8q39 0 90 34q117 78 209 78q105 0 152 -67
q33 -47 33 -107q0 -26 -4 -45q-14 -66 -86 -125z" />
    <glyph glyph-name="agrave" unicode="&#xe0;" horiz-adv-x="778" 
d="M375 957q-9 6 -9 26q4 18 25.5 36t40.5 18q17 -7 21 -11q18 -18 61 -67q23 -26 45 -54q62 -78 62 -90q-18 0 -99 43q-15 8 -78 50q-41 26 -69 49zM588 221l-76 263q-114 0 -216 -74q-109 -78 -125 -187q-2 -18 -2 -38q0 -111 128 -111q87 0 199 74q39 26 92 73zM236 -8
q-198 0 -198 156q0 27 4 45q31 142 218 239q146 76 246 76l-29 98q-8 41 -28 58q-24 17 -53 18q-32 1 -60 -14q-6 -3 -9 -6q20 30 89 63q61 29 84 86l39 -59q36 -71 53 -129l178 -623h-118l-58 197q-23 -21 -67 -60q-13 -11 -54 -43q-139 -102 -237 -102z" />
    <glyph glyph-name="aacute" unicode="&#xe1;" horiz-adv-x="778" 
d="M645 953q13 6 21 26v4q0 15 -10 31q-15 18 -33 18q-19 -6 -27 -10l-69 -51q-9 -7 -87 -70q-100 -81 -100 -90q33 8 112 43q101 44 193 99zM588 221l-76 263q-114 0 -216 -74q-109 -78 -125 -187q-2 -18 -2 -38q0 -111 128 -111q87 0 199 74q39 26 92 73zM236 -8
q-198 0 -198 156q0 27 4 45q31 142 218 239q146 76 246 76l-29 98q-8 41 -28 58q-24 17 -53 18q-32 1 -60 -14q-6 -3 -9 -6q20 30 89 63q61 29 84 86l39 -59q36 -71 53 -129l178 -623h-118l-58 197q-23 -21 -67 -60q-13 -11 -54 -43q-139 -102 -237 -102z" />
    <glyph glyph-name="acircumflex" unicode="&#xe2;" horiz-adv-x="778" 
d="M340 817l-19 19l105 74q106 75 152 135l47 -62q59 -65 147 -100l-98 -70q-10 6 -45 33q-38 29 -59 51l-52 54q-33 -41 -108 -89zM588 221l-76 263q-114 0 -216 -74q-109 -78 -125 -187q-2 -18 -2 -38q0 -111 128 -111q87 0 198 74q40 27 93 73zM236 -8q-198 0 -198 156
q0 27 4 45q31 142 218 239q146 76 246 76l-29 98q-8 41 -28 58q-24 17 -53 18q-32 1 -60 -14q-6 -3 -9 -6q20 30 89 63q61 29 84 86l39 -59q36 -71 53 -129l178 -623h-118l-58 197q-23 -21 -67 -60q-13 -11 -54 -43q-139 -102 -237 -102z" />
    <glyph glyph-name="atilde" unicode="&#xe3;" horiz-adv-x="778" 
d="M317 811l55 29q69 29 122 29q45 0 98 -27q2 -1 45 -16q31 -11 58 -11q52 0 102 31q56 35 102 109q-15 -15 -43 -27q-60 -27 -108 -27q-45 0 -86 17q-90 37 -133 37q-100 0 -212 -144zM588 221l-76 263q-114 0 -216 -74q-109 -78 -125 -187q-2 -18 -2 -38q0 -111 128 -111
q87 0 198 74q40 27 93 73zM236 -8q-198 0 -198 156q0 27 4 45q31 142 218 239q146 76 246 76l-29 98q-8 41 -28 58q-24 17 -53 18q-32 1 -60 -14q-6 -3 -9 -6q20 30 89 63q61 29 84 86l39 -59q36 -71 53 -129l178 -623h-118l-58 197q-23 -21 -67 -60q-13 -11 -54 -43
q-139 -102 -237 -102z" />
    <glyph glyph-name="adieresis" unicode="&#xe4;" horiz-adv-x="778" 
d="M286 889q7 31 33.5 52.5t61.5 25.5q63 0 63 -62q0 -43 -32 -69q-26 -21 -64 -25q-62 0 -62 64v14zM573 889q6 31 33 52.5t62 25.5q63 0 63 -62q0 -43 -32 -69q-26 -21 -64 -25q-62 0 -62 64v14zM588 221l-76 263q-114 0 -216 -74q-109 -78 -125 -187q-2 -18 -2 -38
q0 -111 128 -111q87 0 199 74q39 26 92 73zM236 -8q-198 0 -198 156q0 27 4 45q31 142 218 239q146 76 246 76l-29 98q-8 41 -28 58q-24 17 -53 18q-32 1 -60 -14q-6 -3 -9 -6q20 30 89 63q61 29 84 86l39 -59q36 -71 53 -129l178 -623h-118l-58 197q-23 -21 -67 -60
q-13 -11 -54 -43q-139 -102 -237 -102z" />
    <glyph glyph-name="aring" unicode="&#xe5;" horiz-adv-x="778" 
d="M278 953q13 54 66 91.5t109 37.5t84 -39q22 -31 22 -72q0 -9 -2 -18q-12 -55 -61 -97.5t-105 -42.5q-60 0 -92 45q-23 32 -23 70q0 17 2 25zM398 846q106 0 106 100q0 30 -16 60q-23 43 -62 43q-26 0 -57 -23t-35 -47q-7 -24 -7 -35q0 -8 5 -24q15 -74 66 -74zM588 221
l-76 263q-114 0 -216 -74q-109 -78 -125 -187q-2 -18 -2 -38q0 -111 128 -111q87 0 199 74q39 26 92 73zM236 -8q-198 0 -198 156q0 27 4 45q31 142 218 239q146 76 246 76l-29 98q-8 41 -28 58q-24 17 -53 18q-32 1 -60 -14q-6 -3 -9 -6q20 30 89 63q61 29 84 86l39 -59
q36 -71 53 -129l178 -623h-118l-58 197q-23 -21 -67 -60q-13 -11 -54 -43q-139 -102 -237 -102z" />
    <glyph glyph-name="ae" unicode="&#xe6;" horiz-adv-x="1254" 
d="M786 539h339l-4 41q-23 94 -140 94q-72 0 -144 -67q-16 -15 -51 -68zM588 221l-76 263q-114 0 -216 -74q-109 -78 -125 -187q-2 -18 -2 -38q0 -111 128 -111q87 0 198 74q40 27 93 73zM768 1l-116 -1l-58 197q-23 -21 -67 -60q-13 -11 -54 -43q-139 -102 -237 -102
q-198 0 -198 156q0 27 4 45q31 142 218 239q146 76 246 76l-29 98q-4 15 -12 39q-28 45 -69 45q-21 0 -48 -14l-21 -14q7 9 88 51q54 28 85 98l39 -59q36 -70 53 -129l47 -162q48 110 151 178t222 68q152 0 209 -101l16 -100h-467l-10 -22l-35 -121q-10 -35 -10 -97
q0 -82 41 -143q62 -92 178 -92q70 0 160 51l90 51l-80 -82q-108 -69 -237 -69q-50 0 -99 19z" />
    <glyph glyph-name="ccedilla" unicode="&#xe7;" horiz-adv-x="758" 
d="M313 -18q-130 18 -188 127q-34 64 -34 149q0 148 68 250q38 57 105 105q131 94 277 94q92 0 162 -51q55 -40 55 -66q-2 -7 -20 -16q-14 -11 -54 -27l-73 -22l12 38q4 13 4 27q0 19 -10 35q-27 33 -99 33q-114 0 -198 -99q-72 -84 -98 -206q-10 -46 -10 -84q0 -81 42 -144
q62 -94 187 -94q83 0 186 78l94 71l-88 -102q-125 -96 -252 -96l-9 -40v-6q0 -12 15.5 -33t15.5 -47v-12q-5 -29 -57 -49q-43 -16 -80 -16l-13 2l35 20q42 24 48 47v6q0 13 -15.5 38t-15.5 42v8z" />
    <glyph glyph-name="egrave" unicode="&#xe8;" horiz-adv-x="729" 
d="M379 899q-9 6 -9 27q5 18 26 35.5t40 17.5q17 -6 23 -10l104 -121q62 -72 62 -90q-17 0 -98 43q-77 41 -148 98zM78 344q32 155 143 256q117 107 271 107q151 0 209 -101l16 -100h-467l-10 -22l-35 -121q-11 -38 -11 -97q0 -81 42 -143q62 -92 178 -92q70 0 160 51l90 51
l-80 -82q-109 -69 -238 -69q-134 0 -217 108q-29 38 -45 84q-15 43 -15 97q0 29 9 73zM266 539h338l-4 41q-22 94 -139 94q-73 0 -144 -67q-16 -15 -48 -64z" />
    <glyph glyph-name="eacute" unicode="&#xe9;" horiz-adv-x="729" 
d="M670 899q14 6 20 27v4q0 49 -41 49q-20 -6 -26 -10q-48 -32 -141 -105q-116 -90 -116 -106q31 7 107 41q36 16 109 51q33 17 88 49zM78 344q32 155 143 256q117 107 271 107q151 0 209 -101l16 -100h-467l-10 -22l-35 -121q-11 -38 -11 -97q0 -81 42 -143q62 -92 178 -92
q70 0 160 51l90 51l-80 -82q-109 -69 -238 -69q-134 0 -217 108q-29 38 -45 84q-15 43 -15 97q0 29 9 73zM266 539h338l-4 41q-22 94 -139 94q-73 0 -144 -67q-16 -15 -48 -64z" />
    <glyph glyph-name="ecircumflex" unicode="&#xea;" horiz-adv-x="729" 
d="M334 756l-19 18l107 74q90 62 152 135q14 -23 22 -32q4 -6 25 -29q60 -67 145 -101l-96 -69q-39 18 -105 84l-53 53q-27 -39 -106 -88zM78 344q32 155 143 256q117 107 271 107q151 0 209 -101l16 -100h-467l-10 -22l-35 -121q-11 -38 -11 -97q0 -81 42 -143
q62 -92 178 -92q70 0 160 51l90 51l-80 -82q-109 -69 -238 -69q-134 0 -217 108q-29 38 -45 84q-15 43 -15 97q0 29 9 73zM266 539h338l-4 41q-22 94 -139 94q-73 0 -144 -67q-16 -15 -48 -64z" />
    <glyph glyph-name="edieresis" unicode="&#xeb;" horiz-adv-x="729" 
d="M299 830q13 67 94 78q35 0 52 -21q10 -16 10 -41v-16q-13 -69 -94 -78q-62 0 -62 65v13zM586 830q15 67 94 78q62 0 62 -62v-16q-13 -69 -95 -78q-61 0 -61 65v13zM78 344q32 155 143 256q117 107 271 107q151 0 209 -101l17 -100h-467l-11 -22l-35 -121q-11 -38 -11 -97
q0 -81 42 -143q62 -92 178 -92q70 0 160 51l90 51l-80 -82q-109 -69 -238 -69q-134 0 -217 108q-29 38 -45 84q-15 43 -15 97q0 29 9 73zM266 539h339l-4 41q-23 94 -140 94q-72 0 -143 -67q-19 -18 -52 -68z" />
    <glyph glyph-name="igrave" unicode="&#xec;" horiz-adv-x="463" 
d="M166 899q-9 7 -9 27q2 16 28 35q18 18 38 18q17 -6 23 -10l105 -121q61 -70 61 -90q-18 0 -98 43q-69 37 -148 98zM260 82q-6 -28 -6 -41v-6q0 -18 15 -35h-167q41 34 51 82l97 461q6 29 6 41q0 10 -2 22q-2 6 -6 15q-9 22 -31 35q-24 6 -35 16l-18 16h224z" />
    <glyph glyph-name="iacute" unicode="&#xed;" horiz-adv-x="463" 
d="M572 899q14 6 20 27v4q0 49 -41 49q-20 -6 -26 -10q-78 -53 -165 -123q-92 -75 -92 -88q32 8 107 41q36 16 109 51q33 17 88 49zM260 82q-6 -29 -6 -41v-6q0 -18 14 -35h-166q41 34 51 82l97 461q6 29 6 41q0 10 -2 22q-2 6 -6 15q-9 22 -31 35q-24 6 -35 16l-18 16h223z
" />
    <glyph glyph-name="icircumflex" unicode="&#xee;" horiz-adv-x="463" 
d="M150 756l-19 18l106 74q91 63 152 135q17 -26 23 -32q11 -15 24 -29q61 -67 146 -101l-96 -69q-39 18 -105 84l-53 53q-27 -38 -107 -88zM260 82q-6 -29 -6 -41v-6q0 -18 15 -35h-167q41 34 51 82l97 461q6 29 6 41q0 10 -2 22q-2 6 -6 15q-9 22 -31 35q-24 6 -35 16
l-18 16h223z" />
    <glyph glyph-name="idieresis" unicode="&#xef;" horiz-adv-x="463" 
d="M221 908q35 0 52 -21q10 -16 10 -41v-16q-13 -69 -94 -78q-31 0 -52 22q-12 -45 -23 -79q-2 -11 -8 -23q2 30 8 76q9 69 10 73q10 42 35.5 62t61.5 25zM414 830q13 67 94 78q62 0 62 -62v-16q-13 -69 -95 -78q-61 0 -61 65v13zM260 82q-6 -29 -6 -41v-6q0 -18 15 -35
h-167q41 34 51 82l97 461q6 29 6 41q0 10 -2 22q-2 6 -6 15q-9 22 -31 35q-24 6 -35 16l-18 16h223z" />
    <glyph glyph-name="eth" unicode="&#xf0;" horiz-adv-x="905" 
d="M624 1024q-17 51 -43 154q-10 39 -10 86q0 79 23 82q12 0 31 -10q48 -25 90 -31h39q18 0 43 -4q41 0 90 -31l-76 -35q-96 -44 -115 -121q-4 -28 -4 -43q0 -22 7 -47h368l-209 -95h-123l132 -223q49 -83 49 -194v-30q-3 -25 -8 -50q-36 -169 -170 -307
q-142 -146 -308 -146q-176 0 -275 136q-62 85 -62 184q0 32 7 66q37 177 179 280q119 86 260 86q68 0 113 -22t50 -70l-73 41q-47 19 -84 19q-29 0 -41 -2q-14 -5 -37 -15q-96 -28 -168 -160q-32 -60 -49 -135.5t-17 -117.5q0 -74 27 -142q47 -117 166 -117q116 0 221 121
q89 103 119 248q10 49 10 105q0 101 -41 241q-18 60 -34 106q-10 28 -41 98h-352l210 95h106z" />
    <glyph glyph-name="ntilde" unicode="&#xf1;" horiz-adv-x="832" 
d="M260 754l56 29q54 28 120 28q48 0 100 -26.5t101 -26.5q52 0 103 31q57 35 102 108q-15 -13 -43 -26q-60 -27 -109 -27q-46 0 -86 16q-91 37 -133 37q-100 0 -211 -143zM205 498q4 19 4 37q0 44 -23 82q-39 66 -61 68l29 -2l80 6l96 18q23 0 23 -12v-5l-13 -55l37 2
q141 62 254 62q141 0 185 -119q16 -43 16 -115q0 -75 -16 -147q-12 -53 -42 -152q-23 -77 -63 -166h-107q36 85 62 166q20 62 45 164q13 52 13 109q0 92 -43 148q-48 62 -138 62q-63 0 -136 -37q-81 -42 -93 -98l-91 -432q-4 -19 -4 -31q0 -28 18 -51h-172q41 36 51 82z" />
    <glyph glyph-name="ograve" unicode="&#xf2;" horiz-adv-x="836" 
d="M391 899q-8 6 -8 27q4 19 25.5 36t40.5 17q16 -6 22 -10l105 -121q62 -71 62 -90q-19 0 -99 43q-73 39 -148 98zM654 72q-119 -90 -271 -90q-150 0 -233 90q-64 69 -64 180v31q0 9 11 61q37 173 169 273q119 90 271 90q150 0 233 -90q66 -71 66 -183q0 -33 -6 -70
q-31 -182 -176 -292zM531 674q-121 0 -210 -108q-76 -92 -102 -222q-12 -60 -12 -108q0 -65 23 -117q46 -104 159 -104q118 0 205 102q76 89 109 227q13 54 13 107q0 62 -26 119q-47 104 -159 104z" />
    <glyph glyph-name="oacute" unicode="&#xf3;" horiz-adv-x="836" 
d="M683 899q14 6 20 27v4q0 49 -41 49q-21 -6 -27 -10q-49 -33 -141 -105q-115 -90 -115 -106q29 7 107 41q36 16 109 51q33 17 88 49zM654 72q-119 -90 -271 -90q-150 0 -233 90q-64 69 -64 180v31q0 9 11 61q37 173 169 273q119 90 271 90q150 0 233 -90q66 -71 66 -183
q0 -33 -6 -70q-31 -182 -176 -292zM531 674q-121 0 -210 -108q-76 -92 -102 -222q-12 -60 -12 -108q0 -65 23 -117q46 -104 159 -104q118 0 205 102q76 89 109 227q13 54 13 107q0 62 -26 119q-47 104 -159 104z" />
    <glyph glyph-name="ocircumflex" unicode="&#xf4;" horiz-adv-x="836" 
d="M350 756l-18 18l107 74q87 60 151 135q16 -26 23 -32q11 -15 24 -29q61 -67 146 -101l-97 -69q-38 18 -104 84l-53 53q-28 -39 -107 -88zM654 72q-119 -90 -271 -90q-150 0 -233 90q-64 69 -64 180v31q0 9 11 61q37 173 169 273q119 90 271 90q150 0 233 -90
q66 -71 66 -183q0 -33 -6 -70q-31 -182 -176 -292zM531 674q-121 0 -210 -108q-76 -92 -102 -222q-12 -60 -12 -108q0 -65 23 -117q46 -104 159 -104q118 0 205 102q76 89 109 227q13 54 13 107q0 62 -26 119q-47 104 -159 104z" />
    <glyph glyph-name="otilde" unicode="&#xf5;" horiz-adv-x="836" 
d="M260 754l56 29q54 28 120 28q48 0 100 -26.5t101 -26.5q52 0 103 31q57 35 102 108q-15 -13 -43 -26q-60 -27 -109 -27q-46 0 -86 16q-91 37 -133 37q-100 0 -211 -143zM654 72q-119 -90 -271 -90q-150 0 -233 90q-64 69 -64 180v31q0 9 11 61q37 173 169 273
q119 90 271 90q150 0 233 -90q66 -71 66 -183q0 -33 -6 -70q-31 -182 -176 -292zM531 674q-121 0 -210 -108q-76 -92 -102 -222q-12 -60 -12 -108q0 -65 23 -117q46 -104 159 -104q118 0 205 102q76 89 109 227q13 54 13 107q0 62 -26 119q-47 104 -159 104z" />
    <glyph glyph-name="odieresis" unicode="&#xf6;" horiz-adv-x="836" 
d="M344 830q13 67 95 78q34 0 51 -21q10 -16 10 -41v-16q-13 -69 -94 -78q-62 0 -62 65v13zM632 830q13 67 93 78q62 0 62 -62v-16q-13 -69 -95 -78q-60 0 -60 65v13zM654 72q-119 -90 -271 -90q-150 0 -233 90q-64 69 -64 180v31q0 9 11 61q37 173 169 273q119 90 271 90
q150 0 233 -90q66 -71 66 -183q0 -33 -6 -70q-31 -182 -176 -292zM531 674q-121 0 -210 -108q-76 -92 -102 -222q-12 -60 -12 -108q0 -65 23 -117q46 -104 159 -104q118 0 205 102q76 89 109 227q13 54 13 107q0 62 -26 119q-47 104 -159 104z" />
    <glyph glyph-name="divide" unicode="&#xf7;" horiz-adv-x="776" 
d="M266 688h553l-104 -87h-554zM358 383q15 69 95 78q61 0 61 -63v-15q-13 -69 -94 -78q-35 0 -49 21q-15 18 -15 39q0 12 2 18zM469 908q13 68 94 77q35 0 52 -20q9 -17 9 -41v-16q-10 -69 -93 -78q-62 0 -62 65v13z" />
    <glyph glyph-name="oslash" unicode="&#xf8;" horiz-adv-x="836" 
d="M672 602l-418 -528q24 -27 58 -45q38 -14 77 -14q118 0 205 102q77 90 109 227q12 51 12 109q0 88 -43 149zM228 123l409 516q-39 35 -106 35q-121 0 -210 -108q-76 -92 -102 -222q-12 -60 -12 -108q0 -66 21 -113zM172 51q-51 46 -76 121q-10 45 -10 80v31q0 14 10 61
q34 161 155.5 262t285.5 101q67 0 135 -25l10 17l33 45l18 34v7q0 8 -2 18l-12 33l-8 29q12 8 22 8h154l-170 -213q69 -42 102 -123q17 -42 17 -101v-32q-8 -39 -10 -60q-37 -170 -172 -272q-119 -90 -271 -90q-96 0 -166 39l-63 -83q-33 -44 -39 -65h-99l84 92z" />
    <glyph glyph-name="ugrave" unicode="&#xf9;" horiz-adv-x="832" 
d="M383 899q-8 6 -8 27q4 19 25.5 36t40.5 17q16 -6 22 -10l105 -121q61 -70 61 -90q-18 0 -98 43q-73 39 -148 98zM86 297q19 92 80 170q15 19 47 62q10 14 21 30q2 6 2 15q0 41 -51 94q2 6 2 10q0 6 -2 10h206l-16 -43q-124 -148 -166 -348q-10 -48 -10 -82
q0 -87 54 -133.5t143 -46.5q75 0 151 37q73 36 84 86l87 405q4 19 4 31q0 21 -15 45l-43 37v12h219q-32 -28 -49 -82l-110 -524q-4 -19 -4 -31q0 -28 18 -52l-139 1l18 84q-126 -99 -279 -99q-157 0 -221 87q-41 56 -41 139q0 37 10 86z" />
    <glyph glyph-name="uacute" unicode="&#xfa;" horiz-adv-x="832" 
d="M748 899q15 6 21 27v4q0 49 -42 49q-20 -6 -26 -10q-49 -33 -141 -105q-115 -90 -115 -106q31 8 106 41q36 16 109 51q33 17 88 49zM86 297q19 92 80 170q15 19 47 62q10 14 21 30q2 6 2 15q0 41 -51 94q2 6 2 10q0 6 -2 10h206l-16 -43q-124 -148 -166 -348
q-10 -48 -10 -82q0 -87 54 -133.5t143 -46.5q75 0 151 37q73 36 84 86l87 405q4 19 4 31q0 21 -15 45l-43 37v12h219q-32 -28 -49 -82l-110 -524q-4 -19 -4 -31q0 -28 18 -52l-139 1l18 84q-126 -99 -279 -99q-157 0 -221 87q-41 56 -41 139q0 37 10 86z" />
    <glyph glyph-name="ucircumflex" unicode="&#xfb;" horiz-adv-x="832" 
d="M355 756l-19 18l107 74q87 60 151 135q17 -26 23 -32q11 -15 24 -29q61 -67 146 -101l-97 -69q-38 18 -104 84l-53 53q-27 -38 -107 -88zM86 297q19 92 80 170q15 19 47 62q10 14 21 30q2 6 2 15q0 41 -51 94q2 6 2 10q0 6 -2 10h206l-16 -43q-124 -148 -166 -348
q-10 -48 -10 -82q0 -87 54 -133.5t143 -46.5q75 0 151 37q73 36 84 86l87 405q4 19 4 31q0 21 -15 45l-43 37v12h219q-32 -28 -49 -82l-110 -524q-4 -19 -4 -31q0 -28 18 -52l-139 1l18 84q-126 -99 -279 -99q-157 0 -221 87q-41 56 -41 139q0 37 10 86z" />
    <glyph glyph-name="udieresis" unicode="&#xfc;" horiz-adv-x="832" 
d="M348 830q15 67 95 78q62 0 62 -62v-16q-15 -69 -95 -78q-62 0 -62 65v13zM638 830q13 67 93 78q35 0 52 -21q10 -16 10 -41v-16q-13 -69 -94 -78q-61 0 -61 65v13zM86 297q19 92 80 170q15 19 47 62q10 14 21 30q2 6 2 15q0 41 -51 94q2 6 2 10q0 6 -2 10h206l-16 -43
q-124 -148 -166 -348q-10 -48 -10 -82q0 -87 54 -133.5t143 -46.5q75 0 151 37q73 36 84 86l87 405q4 19 4 31q0 21 -15 45l-43 37v12h219q-32 -28 -49 -82l-110 -524q-4 -19 -4 -31q0 -28 18 -52l-139 1l18 84q-126 -99 -279 -99q-157 0 -221 87q-41 56 -41 139q0 37 10 86
z" />
    <glyph glyph-name="yacute" unicode="&#xfd;" horiz-adv-x="824" 
d="M86 297q17 85 82 172l66 88q2 8 2 17q0 45 -49 96q0 14 -2 18h206l-16 -43q-122 -146 -166 -348q-8 -37 -8 -78q0 -69 35 -118q47 -66 145 -66q80 0 159.5 37t90.5 86l87 405q4 19 4 31q0 21 -15 45l-43 37v12h219q-32 -28 -49 -82l-111 -520q-47 -222 -229 -359
q-159 -120 -326 -120q-135 0 -162 88l142 139l-8 -31q-7 -27 -7 -47q0 -36 23 -63q35 -41 98 -41q102 0 201 96q105 102 154 303l8 33q-126 -99 -279 -99q-157 0 -221 87q-41 56 -41 139q0 36 10 86zM806 899q14 6 20 27v4q0 49 -41 49q-21 -6 -27 -10q-47 -32 -140 -105
q-115 -90 -115 -106q31 8 106 41q36 16 109 51q33 17 88 49z" />
    <glyph glyph-name="thorn" unicode="&#xfe;" horiz-adv-x="885" 
d="M318 518l-68 -315q-2 -9 -2 -16q0 -49 55 -101q67 -63 140 -63q107 0 208 123q89 108 113 223q10 48 10 84q0 70 -32 127q-49 88 -162 88q-63 0 -154 -47q-97 -50 -108 -103zM342 633l67 33q71 35 179 35q184 0 256 -90q51 -64 51 -158q0 -45 -8 -84q-33 -162 -159 -269
q-129 -110 -292 -110q-97 0 -167 41q-30 17 -48 41l-49 -234q-6 -29 -6 -53q0 -28 10 -51q18 -41 35 -41q-41 -9 -112 -58q-64 -44 -76 -47q-5 12 -5 23l248 1172q2 6 2 20q0 36 -27 66q-48 53 -65 53q60 10 135 51l156 84q-4 -19 -10 -31q-57 -111 -70 -174z" />
    <glyph glyph-name="ydieresis" unicode="&#xff;" horiz-adv-x="824" 
d="M348 830q15 67 95 78q62 0 62 -62v-16q-15 -69 -95 -78q-62 0 -62 65v13zM638 830q13 67 93 78q35 0 52 -21q10 -16 10 -41v-16q-13 -69 -94 -78q-61 0 -61 65v13zM86 297q17 85 82 172l66 88q2 8 2 17q0 45 -49 96q0 14 -2 18h206l-16 -43q-122 -146 -166 -348
q-8 -37 -8 -78q0 -69 35 -118q47 -66 145 -66q80 0 159.5 37t90.5 86l87 405q4 19 4 31q0 21 -15 45l-43 37v12h219q-32 -28 -49 -82l-111 -520q-47 -222 -229 -359q-159 -120 -326 -120q-135 0 -162 88l142 139l-8 -31q-7 -27 -7 -47q0 -36 23 -63q35 -41 98 -41
q102 0 201 96q105 102 154 303l8 33q-126 -99 -279 -99q-157 0 -221 87q-41 56 -41 139q0 36 10 86z" />
    <glyph glyph-name="OE" unicode="&#x152;" horiz-adv-x="2601" 
d="M795 17q209 0 385 147q195 163 256 451q18 85 18 172q0 165 -84 276q-114 150 -321 150t-385 -148q-193 -160 -256 -450q-21 -96 -21 -172q0 -166 84 -277q113 -149 324 -149zM1442 281q-116 -152 -301 -236q-171 -78 -356 -78q-280 0 -435 162q-123 128 -123 330
q0 77 16 156q64 305 314 485q225 162 502 162q185 0 323 -79q153 -87 210 -251q250 297 763 297h451q-18 -12 -23 -16q-65 -52 -92 -125l-12 -49q-64 70 -131 100q-90 40 -225 40q-203 0 -355 -77q-107 -54 -194 -147l-60 -80h670q151 0 279 86l-45 -205q-109 86 -242 86
h-682l-18 -28q-45 -69 -72 -195q-25 -111 -25 -193q0 -120 43 -213q91 -196 348 -196q135 0 271 60q165 73 278 216l-35 -164q-110 -65 -254 -112q-155 -50 -270 -50q-411 0 -518 314z" />
    <glyph glyph-name="oe" unicode="&#x153;" horiz-adv-x="1356" 
d="M894 539h338l-4 41q-24 94 -140 94q-72 0 -143 -67q-19 -18 -51 -68zM531 674q-121 0 -210 -108q-76 -92 -102 -222q-12 -60 -12 -108q0 -65 23 -117q46 -104 159 -104q118 0 205 102q76 89 109 227q13 54 13 107q0 62 -26 119q-47 104 -159 104zM725 140
q-65 -79 -153.5 -118.5t-188.5 -39.5q-150 0 -233 90q-64 69 -64 180v31q0 9 11 61q37 173 169 273q119 90 271 90q202 0 270 -148q127 148 311 148q152 0 210 -101l16 -100h-467l-10 -22l-35 -121q-10 -35 -10 -97q0 -83 40 -143q62 -92 179 -92q70 0 160 51l90 51l-80 -82
q-109 -69 -238 -69q-73 0 -145.5 45.5t-102.5 112.5z" />
    <glyph glyph-name="Scaron" unicode="&#x160;" horiz-adv-x="1020" 
d="M146 66l18 28q29 35 51 76l8 31l9 57q4 15 14 21q0 -80 70 -156t211 -76q126 0 219.5 73.5t118.5 195.5q4 19 4 37q0 112 -152 163q-72 21 -215 64q-42 12 -123 39q-144 67 -144 198q0 30 6 58q38 174 212 270q152 84 354 84q191 0 367 -82l-58 -88q-30 -46 -45 -108
q-16 67 -100 147.5t-217 80.5q-311 0 -358 -208q-7 -31 -7 -57q0 -125 146 -185l338 -96q143 -61 143 -194q0 -184 -195 -326q-158 -115 -366 -115q-77 0 -159 17t-150 51zM1055 1508l20 -19l-106 -74q-105 -73 -152 -135q-15 22 -47 62q-60 65 -145 100l96 70
q46 -24 105 -84l53 -54q27 38 106 89z" />
    <glyph glyph-name="scaron" unicode="&#x161;" horiz-adv-x="697" 
d="M65 146l27 6q29 6 41 20l66 60l39 30q-41 -45 -52 -96q-4 -18 -4 -35q0 -32 21 -69q31 -43 88 -43q149 0 180 168q2 11 2 16q0 78 -182 125q-177 45 -177 147q0 17 2 27q20 96 130 154q95 51 203 51q99 0 167 -37q85 -46 85 -137q0 -31 -4 -47q-24 -5 -41 -11
q-13 -6 -41 -18q-51 -21 -101 -57l23 30q27 35 35 78q6 31 6 43q0 41 -27 76q-36 47 -108 47q-81 0 -144 -43q-56 -38 -72 -109q-2 -9 -2 -24q0 -70 92 -103q85 -27 171 -53q92 -40 92 -127q0 -14 -4 -37q-15 -86 -111 -143q-83 -49 -188 -49q-88 0 -145 35q-67 42 -67 125z
M719 979l19 -18l-106 -74q-90 -63 -153 -135q-15 24 -22 33q-15 19 -25 28q-59 66 -145 101l96 69q39 -18 105 -84l53 -53q29 40 106 88z" />
    <glyph glyph-name="Ydieresis" unicode="&#x178;" horiz-adv-x="1362" 
d="M789 1370q13 69 94 78q63 0 63 -61q0 -44 -32 -70q-25 -20 -64 -24q-61 0 -61 65v12zM1077 1370q15 69 95 78q63 0 63 -61q0 -43 -33 -70q-25 -20 -63 -24q-62 0 -62 65v12zM1247 201q-126 -590 -708 -590q-148 0 -289 36l-104 44q68 19 149 69q7 4 41 23q21 16 31 24v-8
q0 -45 80 -90q87 -49 194 -49q149 0 267 106q134 120 194 376q-48 -40 -176 -99q-144 -66 -289 -66q-254 0 -363 185q-60 102 -60 238q0 73 19 165q37 178 166 320l162 178q7 6 7 17q0 16 -19 45q-28 31 -39.5 45.5t-38.5 50.5q11 8 19 8h258q12 0 14 -8
q-198 -180 -301 -447q-84 -219 -84 -391q0 -144 64 -229q87 -115 260 -115q141 0 276 70q132 68 150 155l161 756q5 12 5 27v20q0 47 -21 80q-61 47 -74 64l4 18h265z" />
    <glyph glyph-name="florin" unicode="&#x192;" horiz-adv-x="1010" 
d="M624 853h-225l29 92l227 1q195 545 482 545q74 0 115 -47q22 -31 22 -82q0 -90 -51 -133q-39 -33 -90 -33q-88 0 -88 64q0 51 43 96l35 37q-2 14 -7 16l-16 6q-112 0 -192 -192q-25 -60 -54 -158l-35 -119h248l-26 -93h-248l-60 -221q-84 -308 -149 -483
q-79 -211 -152 -336q-150 -256 -325 -256q-83 0 -124 50q-27 33 -27 84q0 81 57 129q38 32 90 32q46 0 65 -26q14 -19 14 -49q0 -15 -3 -21q-7 -36 -43 -68l-36 -32q4 -13 13 -17q6 -4 22 -4q43 0 84 25q22 16 35 33q20 19 33 42q55 97 121 356q49 193 98 385q14 44 49 156z
" />
    <glyph glyph-name="circumflex" unicode="&#x2c6;" horiz-adv-x="819" 
d="M379 756l-19 18l107 74q90 62 152 135q14 -23 22 -32q4 -6 25 -29q60 -67 145 -101l-96 -69q-35 16 -104 84l-54 53q-27 -39 -106 -88z" />
    <glyph glyph-name="tilde" unicode="&#x2dc;" horiz-adv-x="977" 
d="M375 754l53 27q70 26 125 26q44 0 88 -20l51 -23l60 -10q107 0 203 133l-60 -31q-53 -17 -88 -16l-51 2l-43 16l-64 23l-63 10q-47 0 -98 -29q-54 -30 -113 -108z" />
    <glyph glyph-name="endash" unicode="&#x2013;" horiz-adv-x="652" 
d="M98 459h463l105 86h-463z" />
    <glyph glyph-name="emdash" unicode="&#x2014;" horiz-adv-x="1008" 
d="M98 459h821l105 86h-821z" />
    <glyph glyph-name="quoteleft" unicode="&#x2018;" horiz-adv-x="207" 
d="M340 1116q-10 10 -10 31q2 8 8 21q15 26 43 61l-51 -33q-84 -78 -84 -129v-10q0 -39 45 -43q44 0 68 55q2 4 2 8q0 18 -21 39z" />
    <glyph glyph-name="quoteright" unicode="&#x2019;" horiz-adv-x="221" 
d="M312 1133q8 -7 10 -23q0 -5 -2 -8q-2 -22 -49 -82l49 33q84 78 84 133q0 18 -11 31q-10 18 -34 18q-47 0 -67 -55v-8q0 -20 20 -39z" />
    <glyph glyph-name="quotesinglbase" unicode="&#x201a;" horiz-adv-x="221" 
d="M94 113q11 -10 11 -31q-6 -24 -52 -82l50 33q86 83 86 131q0 19 -13 33q-10 18 -34 18q-52 0 -66 -55q-2 -4 -2 -8q0 -21 20 -39z" />
    <glyph glyph-name="quotedblleft" unicode="&#x201c;" horiz-adv-x="355" 
d="M340 1116q-11 11 -11 31q13 35 52 82l-52 -33q-84 -78 -84 -129v-10q0 -39 46 -43q46 0 67 55q2 4 2 8q0 19 -20 39zM512 1116q-10 7 -10 31q2 8 8 21q15 26 43 61l-51 -33q-84 -78 -84 -129v-10q0 -39 45 -43q44 0 68 55q2 4 2 8q0 19 -21 39z" />
    <glyph glyph-name="quotedblright" unicode="&#x201d;" horiz-adv-x="355" 
d="M484 1133q8 -7 10 -23q0 -5 -2 -8q-2 -22 -49 -82l49 33q84 78 84 133q0 18 -11 31q-10 18 -34 18q-48 0 -68 -55v-8q0 -20 21 -39zM311 1133q8 -6 10 -21q0 -5 -2 -10q-2 -22 -49 -82l49 33q85 79 85 133q0 18 -11 31q-10 18 -34 18q-48 0 -68 -55v-8q0 -21 20 -39z" />
    <glyph glyph-name="quotedblbase" unicode="&#x201e;" horiz-adv-x="355" 
d="M267 113q10 -9 10 -31q-6 -24 -51 -82l49 33q86 83 86 131q0 19 -13 33q-10 18 -34 18q-51 0 -65 -55q-2 -4 -2 -8q0 -20 20 -39zM94 113q11 -8 11 -31q-6 -24 -52 -82l50 33q68 67 84 117q2 6 2 14q0 19 -13 33q-10 18 -34 18q-52 0 -66 -55q-2 -4 -2 -8q0 -21 20 -39z
" />
    <glyph glyph-name="dagger" unicode="&#x2020;" horiz-adv-x="262" 
d="M361 1172l-36 -158h-61l-6 -31h61l-82 -385q21 25 41 54q60 79 75 157q12 62 12 113v61h61l6 31h-61l35 158h-45z" />
    <glyph glyph-name="daggerdbl" unicode="&#x2021;" horiz-adv-x="287" 
d="M367 953h62l-6 -31h-62l-2 -62q-4 -111 -27 -172q-5 -13 -23 -47q-25 -47 -76 -104l83 385h-62l6 31h61l21 100h-62l6 29h62l23 102h45l-23 -102h62l-6 -29h-61z" />
    <glyph glyph-name="bullet" unicode="&#x2022;" horiz-adv-x="1209" 
d="M468 762q27 122 132 208.5t230 86.5q118 0 188 -86q51 -63 51 -143q0 -27 -8 -66q-25 -120 -132.5 -208.5t-227.5 -88.5q-122 0 -191 88q-48 61 -48 142q0 40 6 67z" />
    <glyph glyph-name="ellipsis" unicode="&#x2026;" horiz-adv-x="1106" 
d="M76 72q23 86 104 86q70 0 70 -66q0 -51 -39 -82q-31 -25 -65 -25q-73 0 -73 68q0 8 3 19zM482 135q29 23 63 23q70 0 70 -66q0 -50 -39 -82q-31 -25 -66 -25q-72 0 -72 68q0 47 44 82zM850 135q29 23 64 23q69 0 69 -66q0 -50 -39 -82q-30 -25 -65 -25q-72 0 -72 68
q0 48 43 82z" />
    <glyph glyph-name="perthousand" unicode="&#x2030;" horiz-adv-x="2484" 
d="M1749 271q15 72 67 159q123 205 318 305q102 52 187 52q105 0 157 -72q35 -48 35 -119q0 -35 -6 -65q-16 -80 -72 -176q-130 -223 -303 -310q-93 -47 -178 -47q-127 0 -180 70q-33 44 -33 117v51q4 16 8 35zM2341 715q-101 0 -229 -147q-208 -239 -232 -379
q-4 -13 -4 -37q0 -37 21 -60q24 -34 90 -34q55 0 102 22q56 26 109 74q214 192 252 381q8 40 8 61q0 37 -21 70q-31 49 -96 49zM952 271q14 71 67.5 158.5t128.5 163.5t172 130q113 64 204 64q90 0 142 -51t52 -140q0 -67 -33 -149q-15 -38 -45 -90q-128 -224 -307 -314
q-89 -45 -176 -45q-127 0 -180 70q-33 44 -33 117v51q4 16 8 35zM376 -33l1016 1317q-107 -73 -231 -73l-57 6l-59 24l-4 -47l-9 -43q-10 -50 -22 -80q-14 -36 -47 -92q-129 -217 -307 -312q-95 -51 -181 -51q-115 0 -174 72q-38 46 -38 119q0 26 15 94q34 155 191 312
q198 198 383 198q117 0 168 -92q27 -22 62 -35q33 -7 55 -8q14 -2 37 -2q98 0 197.5 49t158.5 127h90l-1147 -1483h-97zM1544 715q-54 0 -108.5 -36t-120.5 -111q-234 -267 -234 -400q-2 -11 -2 -16q0 -37 19 -60q28 -34 92 -34q103 0 211 96q208 185 251 381q9 41 9 61
q0 39 -20 70q-31 49 -97 49zM979 1262q-51 22 -69 41q-31 23 -41 45q-84 0 -191 -113q-44 -46 -76 -86q-74 -91 -129 -183.5t-68 -152.5q-4 -18 -4 -35q0 -98 111 -98q71 0 141 44.5t162 146.5q95 106 137 213q11 28 23 71l6 52q2 8 2 26q0 8 -4 29z" />
    <glyph glyph-name="guilsinglleft" unicode="&#x2039;" horiz-adv-x="574" 
d="M617 697q-51 -100 -142 -195q-103 -107 -217 -149q72 -66 113 -113q115 -132 132 -223l-132 -32q-19 116 -158 234l-140 119q148 48 263 154q89 82 138 184z" />
    <glyph glyph-name="guilsinglright" unicode="&#x203a;" horiz-adv-x="574" 
d="M78 -8q58 110 142 195q104 106 219 149q-45 41 -65 61t-48 52q-119 136 -131 223l131 31q13 -108 158 -234l137 -119q-145 -46 -262 -153q-88 -80 -138 -184z" />
    <glyph glyph-name="trademark" unicode="&#x2122;" horiz-adv-x="1549" 
d="M239 1121l31 34q31 33 39 66q7 -13 17 -19q36 -20 90 -20h416l-13 -8l-24 -21q-3 -4 -17 -22q-4 -17 -10 -25q-35 51 -98 51h-74q-78 0 -156 -96q-69 -85 -88 -170q-6 -27 -6 -63q0 -50 23 -82q35 -49 119 -49q122 0 217 108l-15 -65q-40 -26 -67 -37q-69 -27 -139 -27
q-101 0 -162 51q-42 35 -42 103v22q4 17 4 25q23 105 134 205q29 26 106 75h-158q-57 0 -88 -16zM770 936q28 128 131 195q88 57 191 57q85 0 133 -43q13 -11 29 -45q88 84 200 84q96 0 146 -70q33 -46 33 -112q0 -38 -6 -66q-22 -105 -108 -180q-88 -78 -194 -78
q-28 0 -59 19q-27 20 -35 41l27 -19q41 -20 75 -20q81 0 149 80q58 69 79 157q9 38 9 70q0 49 -24 94q-34 64 -116 64q-63 0 -114 -35.5t-64 -95.5l-72 -340l-53 -1l67 320q6 29 6 55q0 101 -112 101q-91 0 -163 -73q-66 -66 -89 -159q-8 -32 -8 -74q0 -69 43 -116t112 -47
q85 0 119 47q-55 -68 -143 -68q-92 0 -154 74q-41 49 -41 125q0 32 6 59z" />
    <glyph glyph-name="dotoperator" horiz-adv-x="389" 
d="M166 512q-2 -7 -2 -20q0 -21 10 -37q21 -21 54 -21q73 0 94 78q2 7 2 21q0 57 -64 57q-71 0 -94 -78z" />
  </font>
</defs>
</svg>
